STARTFONT 2.3
FONT -FontForge-Courgette-Book-R-Normal--20-200-72-72-P-103-ISO10646-1
SIZE 20 72 72  4
FONTBOUNDINGBOX 27 26 -4 -6
COMMENT "Generated by fontforge, http://fontforge.sourceforge.net"
COMMENT "Copyright (c) 2012, Sorkin Type Co (www.sorkintype.com) with Reserved Font Name "Courgette"."
STARTPROPERTIES 41
FOUNDRY "FontForge"
FAMILY_NAME "Courgette"
WEIGHT_NAME "Book"
SLANT "R"
SETWIDTH_NAME "Normal"
ADD_STYLE_NAME ""
PIXEL_SIZE 20
POINT_SIZE 200
RESOLUTION_X 72
RESOLUTION_Y 72
SPACING "P"
AVERAGE_WIDTH 103
CHARSET_REGISTRY "ISO10646"
CHARSET_ENCODING "1"
FONTNAME_REGISTRY ""
CHARSET_COLLECTIONS "ISO8859-2 ISO8859-9 ISO8859-4 ISO10646-1"
BITS_PER_PIXEL 4
FONT_NAME "Courgette-Regular"
FACE_NAME "Courgette Regular"
COPYRIGHT "Copyright (c) 2012, Sorkin Type Co (www.sorkintype.com) with Reserved Font Name "Courgette"."
FONT_VERSION "1.002"
FONT_ASCENT 16
FONT_DESCENT 4
UNDERLINE_POSITION -2
UNDERLINE_THICKNESS 1
X_HEIGHT 9
CAP_HEIGHT 14
DEFAULT_CHAR 1
RAW_ASCENT 799
RAW_DESCENT 200
NORM_SPACE 6
RELATIVE_WEIGHT 40
RELATIVE_SETWIDTH 50
SUPERSCRIPT_X 0
SUPERSCRIPT_Y 9
SUPERSCRIPT_SIZE 12
SUBSCRIPT_X 0
SUBSCRIPT_Y 2
SUBSCRIPT_SIZE 12
AVG_LOWERCASE_WIDTH 99
AVG_UPPERCASE_WIDTH 116
ENDPROPERTIES
CHARS 407
STARTCHAR .null.dup1
ENCODING 0
SWIDTH 0 0
DWIDTH 0 0
BBX 1 1 0 0
BITMAP
00
ENDCHAR
STARTCHAR uni0001
ENCODING 1
SWIDTH 0 0
DWIDTH 0 0
BBX 1 1 0 0
BITMAP
00
ENDCHAR
STARTCHAR uni0002
ENCODING 2
SWIDTH 0 0
DWIDTH 0 0
BBX 1 1 0 0
BITMAP
00
ENDCHAR
STARTCHAR uni0003
ENCODING 3
SWIDTH 0 0
DWIDTH 0 0
BBX 1 1 0 0
BITMAP
00
ENDCHAR
STARTCHAR uni0004
ENCODING 4
SWIDTH 0 0
DWIDTH 0 0
BBX 1 1 0 0
BITMAP
00
ENDCHAR
STARTCHAR uni0005
ENCODING 5
SWIDTH 0 0
DWIDTH 0 0
BBX 1 1 0 0
BITMAP
00
ENDCHAR
STARTCHAR uni0006
ENCODING 6
SWIDTH 0 0
DWIDTH 0 0
BBX 1 1 0 0
BITMAP
00
ENDCHAR
STARTCHAR uni0007
ENCODING 7
SWIDTH 0 0
DWIDTH 0 0
BBX 1 1 0 0
BITMAP
00
ENDCHAR
STARTCHAR uni0008
ENCODING 8
SWIDTH 0 0
DWIDTH 0 0
BBX 1 1 0 0
BITMAP
00
ENDCHAR
STARTCHAR uni0009
ENCODING 9
SWIDTH 0 0
DWIDTH 0 0
BBX 1 1 0 0
BITMAP
00
ENDCHAR
STARTCHAR nonmarkingreturn
ENCODING 13
SWIDTH 0 0
DWIDTH 0 0
BBX 1 1 0 0
BITMAP
00
ENDCHAR
STARTCHAR uni0015
ENCODING 21
SWIDTH 0 0
DWIDTH 0 0
BBX 1 1 0 0
BITMAP
00
ENDCHAR
STARTCHAR uni0016
ENCODING 22
SWIDTH 0 0
DWIDTH 0 0
BBX 1 1 0 0
BITMAP
00
ENDCHAR
STARTCHAR uni0017
ENCODING 23
SWIDTH 0 0
DWIDTH 0 0
BBX 1 1 0 0
BITMAP
00
ENDCHAR
STARTCHAR uni0018
ENCODING 24
SWIDTH 0 0
DWIDTH 0 0
BBX 1 1 0 0
BITMAP
00
ENDCHAR
STARTCHAR uni0019
ENCODING 25
SWIDTH 0 0
DWIDTH 0 0
BBX 1 1 0 0
BITMAP
00
ENDCHAR
STARTCHAR space
ENCODING 32
SWIDTH 307 0
DWIDTH 6 0
BBX 1 1 0 0
BITMAP
00
ENDCHAR
STARTCHAR exclam
ENCODING 33
SWIDTH 417 0
DWIDTH 8 0
BBX 9 15 1 0
BITMAP
000005EE10
00002EF900
0000BFE100
0003FF6000
0009FD0000
000EF60000
004FD00000
007F700000
00AF100000
00CA000000
00B4000000
0010000000
2DE6000000
6FFB000000
1CE3000000
ENDCHAR
STARTCHAR quotedbl
ENCODING 34
SWIDTH 437 0
DWIDTH 9 0
BBX 9 5 2 11
BITMAP
04EE22DE30
0CF90BFB00
2FD10FE100
3F502F6000
2B000C0000
ENDCHAR
STARTCHAR numbersign
ENCODING 35
SWIDTH 725 0
DWIDTH 15 0
BBX 14 15 1 0
BITMAP
0000004D505E40
000000CF20DE10
000002FB03F900
000007F509F300
00000CE00EC000
06EFFFFFFFFFE2
0122AF22CE2200
0000DB00EA0000
0002F703F60000
9EFFFFFFFFFB00
222EA23F922000
003F504F300000
007F108E000000
00BB00C9000000
00D301E2000000
ENDCHAR
STARTCHAR dollar
ENCODING 36
SWIDTH 545 0
DWIDTH 11 0
BBX 11 21 1 -3
BITMAP
000000000540
000000008F30
00000001F900
000029EFF500
0004ED53AF20
002EE1003F80
009F70005F90
00EF4001CF70
01FF400BFF20
00FF903FF600
00BFF3021000
003FFC000000
0008FF600000
0100BFC00000
6F102FE00000
CF200FB00000
AF938F300000
2BFEB3000000
08E100000000
0C8000000000
062000000000
ENDCHAR
STARTCHAR percent
ENCODING 37
SWIDTH 876 0
DWIDTH 18 0
BBX 16 15 1 0
BITMAP
003BED6000005E40
04ED4BF10004FB00
0DF30AF4002EE200
5FB00DF201DF3000
7F705FC00BF60000
5F82EE309F800000
0AFFC306FA000000
0011004FC1000000
000002ED204BEC40
00001DE306FC4ED0
0000BF502FE10DF1
0008F7008F802FE0
006F9000AF409F80
03FB00007F76FC10
0BB100001AEE8100
ENDCHAR
STARTCHAR ampersand
ENCODING 38
SWIDTH 563 0
DWIDTH 11 0
BBX 12 15 0 0
BITMAP
000005BEEB30
0001BFC527E1
001CFB0003F5
007FD1001CF4
00CF7004DFC0
00EF300AFE30
00AF50115100
002DFFE20000
006FFC610000
05FF60220031
0EF701EFFFC1
4FE0003FA100
4FE0005F5000
1DF837E90000
02AEFC500000
ENDCHAR
STARTCHAR quotesingle
ENCODING 39
SWIDTH 231 0
DWIDTH 5 0
BBX 5 5 2 11
BITMAP
04EE20
0CF900
2FD100
3F5000
2B0000
ENDCHAR
STARTCHAR parenleft
ENCODING 40
SWIDTH 478 0
DWIDTH 10 0
BBX 10 23 2 -5
BITMAP
0000000037
00000009F7
000001BE40
00001CE300
0000AF5000
0007F90000
002ED10000
00AF600000
03FE000000
0AF7000000
0EF2000000
4FE0000000
8FA0000000
AF80000000
BF70000000
CF60000000
BF60000000
9F70000000
6FA0000000
1FE0000000
09F5000000
01ED100000
003D800000
ENDCHAR
STARTCHAR parenright
ENCODING 41
SWIDTH 478 0
DWIDTH 10 0
BBX 10 23 -2 -5
BITMAP
0000036000
000005FA00
0000008F60
0000001EE0
0000000BF5
00000007F9
00000005FC
00000004FD
00000004FD
00000005FC
00000007FA
0000000AF7
0000000DF3
0000003FD0
0000009F70
000001EE10
000009F800
00003FD000
0000CF3000
000AF50000
009F700000
1AF5000000
BB20000000
ENDCHAR
STARTCHAR asterisk
ENCODING 42
SWIDTH 518 0
DWIDTH 10 0
BBX 8 8 2 7
BITMAP
0000CE40
0204FD10
0D57F322
0AEBCBFD
01BFFA63
03ECF600
1E80AF30
25002E40
ENDCHAR
STARTCHAR plus
ENCODING 43
SWIDTH 617 0
DWIDTH 12 0
BBX 11 10 1 2
BITMAP
00003D000000
00006F000000
00006F000000
00006F000000
6EFFFFFFFE20
12228F222100
00006F000000
00006F000000
00006F000000
00005B000000
ENDCHAR
STARTCHAR comma
ENCODING 44
SWIDTH 312 0
DWIDTH 6 0
BBX 4 6 0 -3
BITMAP
0371
1FFA
0AFA
08F5
2EA0
B800
ENDCHAR
STARTCHAR hyphen
ENCODING 45
SWIDTH 452 0
DWIDTH 9 0
BBX 7 2 1 5
BITMAP
2DFFFF70
02222200
ENDCHAR
STARTCHAR period
ENCODING 46
SWIDTH 270 0
DWIDTH 5 0
BBX 4 3 0 0
BITMAP
3EE5
7FF9
2DD2
ENDCHAR
STARTCHAR slash
ENCODING 47
SWIDTH 405 0
DWIDTH 8 0
BBX 14 21 -2 -3
BITMAP
000000000002C7
00000000000CE2
00000000006F70
0000000001ED00
0000000009F500
000000002FB000
00000000AF3000
00000004F90000
0000000CE10000
0000006F700000
000001ED100000
000008F5000000
00002EC0000000
0000AF30000000
0003FA00000000
000BE200000000
005F8000000000
00DD1000000000
07F60000000000
1EC00000000000
7D200000000000
ENDCHAR
STARTCHAR zero
ENCODING 48
SWIDTH 621 0
DWIDTH 12 0
BBX 12 15 1 0
BITMAP
0000018DFC40
00004EE53CE1
0004FE2007F5
001EF50008F7
009FA0000AF6
03FF20000DF5
0AFA00002FF2
0EF400008FC0
4FE00000DF70
8FA00006FE10
AF70001DF700
AF40008FD000
8F4005FE2000
3FA37FD30000
06DFD8100000
ENDCHAR
STARTCHAR one
ENCODING 49
SWIDTH 405 0
DWIDTH 8 0
BBX 8 15 1 0
BITMAP
00004DB0
0007FFF2
02CFEFE0
04B76FB0
0000AF60
0001EF10
0005FA00
000BF400
001FD000
007F7000
00DE1000
04F70000
0BD10000
2F500000
77000000
ENDCHAR
STARTCHAR two
ENCODING 50
SWIDTH 524 0
DWIDTH 10 0
BBX 11 15 0 0
BITMAP
000019EFC400
0003EE53BF30
000DF4004F80
004FF0005F90
005FF400BF70
001DE406FF10
0000104FF700
000003EFA000
00003EFA0000
0004EF900000
003EF6000000
02EE30000000
1DD200026000
8FDEFFFFD000
9B447CFD4000
ENDCHAR
STARTCHAR three
ENCODING 51
SWIDTH 537 0
DWIDTH 11 0
BBX 11 15 0 0
BITMAP
000007DFE800
0001CF738F80
000AF6000FD0
002FF1001FE0
004FF5006FC0
001DF501DF60
0000103DFB00
00003AFFB100
0000BFFB0000
000023BF5000
0031008F9000
0BF600AF7000
2FE003FE2000
1EE45EF50000
03CEEA300000
ENDCHAR
STARTCHAR four
ENCODING 52
SWIDTH 529 0
DWIDTH 11 0
BBX 10 15 1 0
BITMAP
0008D20000
000BF70000
001FF50000
006FE10000
00CF800C90
05FE202FF1
0DF7006FD0
7FD000CF80
CF3003FF20
6FFFFFFFE3
01223FE331
00007F7000
0001ED0000
0007F30000
000C600000
ENDCHAR
STARTCHAR five
ENCODING 53
SWIDTH 540 0
DWIDTH 11 0
BBX 13 15 0 0
BITMAP
00001DDA88AE10
00005FCDFFFC00
0000BF20365100
0002FB00000000
0009F400000000
002FECFD800000
008FD43DF60000
006C1007FB0000
00000007FC0000
0000000AFA0000
05A2000EF50000
2FD0007FD00000
4F9002EF400000
1ED36EF5000000
03BEEA20000000
ENDCHAR
STARTCHAR six
ENCODING 54
SWIDTH 554 0
DWIDTH 11 0
BBX 11 15 1 0
BITMAP
000004BEE800
00009FB45F40
0009FA005F60
005FC006FF30
01EF3006E700
07FB00000000
0DF68DE91000
3FFDA38F9000
6FFA000FE000
9FF2001FF100
9FB0004FE000
9F8000AF9000
6F8005FE2000
1DD36EE30000
02BED8100000
ENDCHAR
STARTCHAR seven
ENCODING 55
SWIDTH 473 0
DWIDTH 9 0
BBX 9 16 2 -1
BITMAP
6B40149E70
5FFFFFEFE0
0AEDA56F80
000003ED00
00001DF300
0000AF7000
0006FB0000
002EE20000
00BF700000
05FD000000
0CF6000000
4FE1000000
9FA0000000
BF60000000
AF40000000
1510000000
ENDCHAR
STARTCHAR eight
ENCODING 56
SWIDTH 524 0
DWIDTH 10 0
BBX 10 15 1 0
BITMAP
00008DFC60
000BD44DF7
006F4005FD
00BF0003FF
00DF2004FC
00CF700AF6
008FE18FB0
002EFEF800
002CFF6000
07FBBFC000
7F801EF200
EF1008F400
FF1007F100
AFA25E8000
19EEC50000
ENDCHAR
STARTCHAR nine
ENCODING 57
SWIDTH 554 0
DWIDTH 11 0
BBX 11 15 1 0
BITMAP
00005BEE8000
000AF937F900
009FA000FE00
03FE1001FF10
09FA0004FE00
0CF60009FD00
0CF5003FFA00
08FA04EFF600
01BFFD7FF200
0001205FB000
000000BF4000
5D4004FA0000
EF102DD10000
DF35DD200000
4DFD71000000
ENDCHAR
STARTCHAR colon
ENCODING 58
SWIDTH 312 0
DWIDTH 6 0
BBX 6 10 0 0
BITMAP
001750
00AFF4
00AFF2
001730
000000
000000
000000
1DE700
5FFB00
1CE400
ENDCHAR
STARTCHAR semicolon
ENCODING 59
SWIDTH 312 0
DWIDTH 6 0
BBX 6 12 0 -3
BITMAP
006ED2
00BFF5
005EB1
000000
000000
000000
037100
1FFA00
0AFA00
08F500
2EA000
B80000
ENDCHAR
STARTCHAR less
ENCODING 60
SWIDTH 637 0
DWIDTH 13 0
BBX 11 11 1 1
BITMAP
000000004D40
0000002BFB10
000019FE6000
0007EF910000
04DFC3000000
7FF700000000
19FE60000000
003BFC400000
00005DFA2000
0000007EE700
000000019E30
ENDCHAR
STARTCHAR equal
ENCODING 61
SWIDTH 617 0
DWIDTH 12 0
BBX 11 6 1 4
BITMAP
3EFFFFFFFF60
022222222100
000000000000
000000000000
5EFFFFFFFE30
122222222100
ENDCHAR
STARTCHAR greater
ENCODING 62
SWIDTH 606 0
DWIDTH 12 0
BBX 11 11 1 1
BITMAP
6E7000000000
19FD50000000
004CFB300000
00007EF91000
000002AFE700
0000000AFF40
000003CFB300
00019FD50000
006EE7000000
2CF910000000
7B3000000000
ENDCHAR
STARTCHAR question
ENCODING 63
SWIDTH 516 0
DWIDTH 10 0
BBX 10 15 1 0
BITMAP
00005CFD70
0006FB35F7
000EF200EB
001FF303FB
000AB12DF7
000003DFC1
00006FFB10
0007FF8000
004FE50000
009F400000
00A8000000
0010000000
2DD6000000
6FFA000000
1CD3000000
ENDCHAR
STARTCHAR at
ENCODING 64
SWIDTH 905 0
DWIDTH 18 0
BBX 17 17 1 -3
BITMAP
00000038CEEDB60000
00002BD853359FD200
0005E700000003ED00
005F40000000006F60
03F60017DE5AC01F90
0CD001CE65FFB00EB0
5F700AF600DF400E90
AF303FD003FC003F60
DF108F800AF600AE10
FE00AF604FF205F700
FE009F73BBE16F9000
DF202DFB26FFD60000
9F8000200011000000
2EF400000000000000
04EF82002570000000
0029EFFFEA30000000
000001210000000000
ENDCHAR
STARTCHAR A
ENCODING 65
SWIDTH 615 0
DWIDTH 12 0
BBX 15 15 -2 0
BITMAP
000000000004BED0
00000000009EBFC0
000000001BD29F60
00000000BD11FF10
00000008F307FA00
0000004F700DF400
000000DC004FE000
000019FDDEFFFF50
0005EFDCCCFFC810
0001BE1002FF1000
0004F80006FC0000
000CE10009F90000
008F70000BF70000
18FC000009F94200
7EA1000003DEA100
ENDCHAR
STARTCHAR B
ENCODING 66
SWIDTH 551 0
DWIDTH 11 0
BBX 11 15 1 0
BITMAP
0059CEFEA400
2DFE8424CF50
2CA540003FD0
001EF5002FF0
00AFE1005FD0
03FF7000CF80
09FE101BFC10
1FF726DFC100
6FFFFFF90000
AFB635DF4000
DF20006FA000
FD00008F9000
FB0003EF3000
CE559FE50000
3CFEB7100000
ENDCHAR
STARTCHAR C
ENCODING 67
SWIDTH 533 0
DWIDTH 11 0
BBX 12 15 1 0
BITMAP
0000029EEB20
00007FD63BC0
0008FC1009F1
006FE2002EF1
02EF4001CFB0
0BFB000DFF30
2FF4000AD400
8FD000000000
BF9000000000
EF6000000000
FF4000000000
FF5000000000
CF80002A0000
4FE437EE0000
04CEEC810000
ENDCHAR
STARTCHAR D
ENCODING 68
SWIDTH 630 0
DWIDTH 13 0
BBX 12 15 1 0
BITMAP
038CEFED9300
0DFD7324BF80
037131000BF5
000AFC0005FB
003FF50003FE
00BFB00004FE
02FF400007FC
08FC00000CF8
0EF600004FF2
4FF10000DF80
9FA0000AFD10
CF60009FE200
FF201AFD2000
DF36EF910000
3CED93000000
ENDCHAR
STARTCHAR E
ENCODING 69
SWIDTH 509 0
DWIDTH 10 0
BBX 12 15 0 0
BITMAP
0000029DFD81
00006FF833E8
0006FE4001EA
002FF6001BF7
007FC003DFD1
00AF7005FC20
009F70001000
002ED7930000
0019FFE60000
01CFE6000000
0AFE20000000
1FF600013000
2FF2002DA000
0CF736EE3000
02AEFD920000
ENDCHAR
STARTCHAR F
ENCODING 70
SWIDTH 518 0
DWIDTH 10 0
BBX 13 15 0 0
BITMAP
009EEDA7410850
09FFEEFFFFFC10
0DF500DE122000
069006F9000000
00000CF5000000
00003FF1000000
00008FB0000000
0002DFEEE60000
006FFFEDDA0000
002BFC00000000
000DF600000000
006FD000000000
01DF5000000000
0AF90000000000
4E800000000000
ENDCHAR
STARTCHAR G
ENCODING 71
SWIDTH 598 0
DWIDTH 12 0
BBX 12 15 1 0
BITMAP
0000029DEB20
00006FE63BC0
0007FD2008F2
005FE2001DF2
02EF6000AFD0
0AFD000BFF50
2FF5000BF700
7FE000001000
BFA000442350
DF7007FFFFA0
FF40018FFB20
EF40004F5000
BF7000AD1000
4FE539E30000
04CFD9200000
ENDCHAR
STARTCHAR H
ENCODING 72
SWIDTH 668 0
DWIDTH 13 0
BBX 15 15 -1 0
BITMAP
001AEFD400000CB0
000989F900003FF0
00000AF800007FB0
00000DF50000BF60
00002FF10002FE10
00006FB00007F900
0000BFECDEEFFE30
001DFE43348FFB00
0009FA00008F8000
000CF40000DF3000
003FC00003FD0000
00BF500008F80000
04FC00000CF40000
2EE200000DF55000
8D30000007ED5000
ENDCHAR
STARTCHAR I
ENCODING 73
SWIDTH 327 0
DWIDTH 7 0
BBX 8 15 -1 0
BITMAP
0007DFD5
000696FD
000005FD
000008FB
00000CF7
00001FF3
00005FE0
0000AF90
0001EF40
0005FD00
000CF700
004FE100
00CF6000
08FA0000
1E900000
ENDCHAR
STARTCHAR J
ENCODING 74
SWIDTH 393 0
DWIDTH 8 0
BBX 13 20 -4 -5
BITMAP
00000028DFEA10
000007FFB4DF70
00000CF700EF60
0000012002FF30
0000000006FE00
000000000BFB00
000000001FF600
000000006FF100
00000000BFB000
00000002FF5000
00000009FD0000
0000001EF70000
0000007FE10000
000001EF700000
000009FD000000
00003FF3000000
0001DF70000000
001BF900000000
03CF8000000000
4EC40000000000
ENDCHAR
STARTCHAR K
ENCODING 75
SWIDTH 616 0
DWIDTH 12 0
BBX 14 15 -1 0
BITMAP
003BEE800007E6
004C5DF30005FE
00001FF30007FE
00004FF1000DF8
00007FD0007FD1
0000BF9005FD20
0001FF507FB100
0005FF2AF70000
000AFDDE300000
001FF9EF400000
007FE16FE20000
00DF700BFC0000
07FD1003FF7000
4FF400008FF720
BD40000007EEA1
ENDCHAR
STARTCHAR L
ENCODING 76
SWIDTH 517 0
DWIDTH 10 0
BBX 13 15 -1 0
BITMAP
00000004CEC300
0000005FC38D00
000002EE206F30
00000BF800BF30
00004FF106FD00
0000AFA07FF600
0002FF44FFA000
0007FD00650000
000CF700000000
003FE100000000
008F9000000000
01EE1000000000
08F61357610000
4FECFFFFFE1000
2EDA86568D3000
ENDCHAR
STARTCHAR M
ENCODING 77
SWIDTH 931 0
DWIDTH 19 0
BBX 21 15 -2 0
BITMAP
00000000006DE40002AE80
000000000ADFF4002EEF80
00000000AD5FD001DBCF30
00000007F3AF8009E4FD00
0000002F91EF303F68F900
000000BE15FD00CC0DF400
000005F709F905F44FE000
00000DD00DF50CA09FA000
00006F501FF25F30DF5000
0001EC004FE0CA02FF1000
0009F4005FB4F205FD0000
003FB0006FAC9008FA0000
01DF20006FDE1009F80000
2BF600005FF60006FB2400
DE7000001D900001BFD500
ENDCHAR
STARTCHAR N
ENCODING 78
SWIDTH 708 0
DWIDTH 14 0
BBX 16 15 0 0
BITMAP
0000019E70007EA0
00000BFF70005FF5
00007FEF40000EF7
0002F8CF30000EF5
000AE1DF40002FE1
002F80DF40006F90
009F20CF6000BF20
01EB00BF8003F900
06F6009FB00AE100
0BF2006FE02F7000
1FC0002FF38D1000
4F90000DF8E60000
7F500007FFE00000
9F300001EF800000
5E0000004D500000
ENDCHAR
STARTCHAR O
ENCODING 79
SWIDTH 655 0
DWIDTH 13 0
BBX 13 15 1 0
BITMAP
0000018DFE9100
00005EF736FB00
0005FE4000CF30
003FF60000AF60
00CFA00000BF60
06FF200000EF50
0DF8000003FF20
3FF2000008FC00
7FC000001EF700
AF8000007FE100
BF500001EF6000
BF40000BFB0000
8F60008FC10000
2ED44BFB100000
02BEEB50000000
ENDCHAR
STARTCHAR P
ENCODING 80
SWIDTH 553 0
DWIDTH 11 0
BBX 14 15 -1 0
BITMAP
00016ADEFEB500
000CFE85338FA0
000364E6000CF3
00000CF7000CF5
00003FF1002FF3
00009FB001CFC0
0000EF603CFD20
0004FF7AFFA100
0009FFEC830000
001EF400000000
006FD000000000
00DF5000000000
06FC0000000000
2EE20000000000
8D300000000000
ENDCHAR
STARTCHAR Q
ENCODING 81
SWIDTH 655 0
DWIDTH 13 0
BBX 14 19 1 -4
BITMAP
0000039DFD7000
00008FD627F700
0009FC1000EE00
006FD10000DF30
01EF400000EF30
08FA000002FF20
0DF4000007FD00
3FE000000DF700
6FC000006FE100
7FC00002EF6000
5FF2000BFA0000
0DFA00AFB00000
02831BFA100000
0028EF70000000
03FFFFE7000000
000028EFC20000
0000001AFF7123
000000005CFFD2
00000000001200
ENDCHAR
STARTCHAR R
ENCODING 82
SWIDTH 623 0
DWIDTH 12 0
BBX 14 16 -1 -1
BITMAP
000049CEFEB500
0008FFB5337F90
0006C473000AF4
000007FA0009F7
00000EF5000DF6
00005FE1006FE1
0000BF9006FF60
0001FF55CFE500
0006FFFFE81000
000CF78F800000
003FF10DF40000
00AF9007FC0000
03FE1001EF7000
1CF500006FF530
6E50000008FFA0
00000000001200
ENDCHAR
STARTCHAR S
ENCODING 83
SWIDTH 474 0
DWIDTH 9 0
BBX 11 15 0 0
BITMAP
000018DFD600
0002DF626F60
000CF5000DC0
005FC0001FE0
009F90008FC0
00BF9007FF50
00AFD00BF800
006FF7001000
000DFE200000
0003EFB00000
01005FF20000
2E600CF40000
7F700AF10000
5FD35E600000
07DFC5000000
ENDCHAR
STARTCHAR T
ENCODING 84
SWIDTH 471 0
DWIDTH 9 0
BBX 12 15 1 0
BITMAP
07DFDB741057
6FFFEEFFFFE2
AF7009F82200
39001EF20000
00005FD00000
0000BF800000
0001FF400000
0005FE000000
0009F9000000
000EF4000000
004FD0000000
00AF60000000
03FD00000000
1CF400000000
9E5000000000
ENDCHAR
STARTCHAR U
ENCODING 85
SWIDTH 624 0
DWIDTH 12 0
BBX 14 15 0 0
BITMAP
0002DE600001E9
0000CFA00009FA
0000BF70002FF3
0002FF20009FC0
0008FC0002FF60
001EF50009FF10
006FD0002FFB00
00DF70009FF600
04FE1003FFF100
0BF9000BEFB000
1FF3005E9F7000
6FD001E4CF4000
8FA00B60FF2000
8FC3B600EF5510
1CFC40006EE800
ENDCHAR
STARTCHAR V
ENCODING 86
SWIDTH 587 0
DWIDTH 12 0
BBX 14 15 1 0
BITMAP
04AEE700004EB1
1FFFEF50004FF5
04619F70000EF6
0003FF30001FF2
000BFB00009FB0
003FF30004FF30
00BFA0002EF600
02FF3001CF9000
08FB001CF90000
0DF400BF800000
2FE00BF7000000
5FA0AF50000000
5F98F500000000
2FEF5000000000
08E50000000000
ENDCHAR
STARTCHAR W
ENCODING 87
SWIDTH 941 0
DWIDTH 19 0
BBX 19 15 1 0
BITMAP
06BED50000000000AE50
4FFEEE1000000001FFB0
0750CF4000000000AFE0
0006FE10004C90008FE0
001EF80008FF60007FC0
007FE1009FFA00009FA0
00EF8008FFE10000CF50
05FE106FFF900001FE10
0BF803FCCF400007F900
1FF21DD3FF00001EE200
5FC09E24FC00008F6000
8F74F506FA0004FA0000
9F6D8005FA002EB00000
6FDC0002FD36E9000000
0BE200005DEB40000000
ENDCHAR
STARTCHAR X
ENCODING 88
SWIDTH 552 0
DWIDTH 11 0
BBX 16 15 -1 0
BITMAP
000001BB00006DE2
000009F9000AFD30
00000CF8009FB100
00000CF706FB0000
00000BF83FC10000
000009F9DE200000
000007FFF4000000
000004FF70000000
000006FF10000000
00002EFF50000000
0001DDAFA0000000
001CF45FF2000000
01BF600EFA000000
2CF70006FFCD1000
DD5000007EE60000
ENDCHAR
STARTCHAR Y
ENCODING 89
SWIDTH 580 0
DWIDTH 12 0
BBX 14 20 0 -5
BITMAP
0003DE600002E8
0001CF90000AF8
0000CF60002FF1
0003FF2000AF90
0009FB0002FF40
001FF5000AFD00
007FD0003FF800
00EF6000AFF200
05FE1003FFC000
0BF8000CFF6000
2FF2006ECF1000
7FC002E5F90000
9F901C59F30000
8FB3B52FA00000
2CEB30BF200000
000006F8000000
00003EC0000000
0003ED20000000
006ED200000000
0BD81000000000
ENDCHAR
STARTCHAR Z
ENCODING 90
SWIDTH 501 0
DWIDTH 10 0
BBX 13 15 -1 0
BITMAP
0006A31248CE40
0005FFFFFFDFD0
0001AEEB73DF80
000000001DFB00
00000001CFC100
0000001CFC1000
000000BFC10000
00000AFC100000
00009FC1000000
0007FC10000000
005FC100000000
02ED1000000000
0CF458BDD60000
3FEEFFFFFF2000
1DE952114C4000
ENDCHAR
STARTCHAR bracketleft
ENCODING 91
SWIDTH 396 0
DWIDTH 8 0
BBX 11 22 0 -4
BITMAP
0000002BDC40
0000008FC200
000000DF3000
000003FD0000
000008F70000
00000DF20000
00004FC00000
00009F700000
0000EF100000
0004FB000000
000AF6000000
001EF1000000
005FB0000000
00AF60000000
01FF10000000
06FB00000000
0BF500000000
1FF100000000
6FA000000000
CF6000000000
EFFC00000000
122000000000
ENDCHAR
STARTCHAR backslash
ENCODING 92
SWIDTH 464 0
DWIDTH 9 0
BBX 7 21 1 -3
BITMAP
E6000000
DD000000
9F100000
5F500000
1F900000
0CD00000
08F20000
05F50000
01F90000
00CD0000
008F2000
004F6000
001F9000
000BD000
0008F200
0004F600
0000FA00
0000BE00
00007F20
00003F60
00000B80
ENDCHAR
STARTCHAR bracketright
ENCODING 93
SWIDTH 394 0
DWIDTH 8 0
BBX 12 22 -2 -4
BITMAP
00000008EEE3
000000003FF2
000000004FC0
000000009F70
00000000EF10
00000004FB00
00000009F600
0000000EF100
0000004FB000
0000009F5000
000000EE1000
000004FA0000
000009F50000
00000EE00000
00005F900000
0000AF400000
0001EE000000
0006F9000000
000BF4000000
003FD0000000
1BFF70000000
012200000000
ENDCHAR
STARTCHAR asciicircum
ENCODING 94
SWIDTH 540 0
DWIDTH 11 0
BBX 10 8 1 7
BITMAP
00005E3000
0000DFA000
0007FFF200
001EE6F900
008F50BF20
02FA002F90
0AD10008F2
1E400000C6
ENDCHAR
STARTCHAR underscore
ENCODING 95
SWIDTH 530 0
DWIDTH 11 0
BBX 14 2 -4 -4
BITMAP
1DFFFFFFFFFFFC
02222222222220
ENDCHAR
STARTCHAR grave
ENCODING 96
SWIDTH 219 0
DWIDTH 4 0
BBX 4 5 0 10
BITMAP
1BE0
3FE0
1EE0
05F3
0043
ENDCHAR
STARTCHAR a
ENCODING 97
SWIDTH 541 0
DWIDTH 11 0
BBX 11 11 0 -1
BITMAP
00005CEA5E90
000AF93AFF80
009F9006FE10
04FD000BF900
0CF7002FF200
2FF2008FB000
4FE002EF7000
4FD00BEF4000
1EE3ABAFB810
05DE916FFB00
000000034000
ENDCHAR
STARTCHAR b
ENCODING 98
SWIDTH 525 0
DWIDTH 11 0
BBX 10 17 0 0
BITMAP
0000440000
0000EF1000
0002FF0000
0005FB0000
0009F70000
000DF20000
003FC00000
007F76DEA0
00CF9C3BF7
02FED108FB
07FF3009FB
0CF9000BF9
0FF2001FF5
2FB0008FD0
2F9004FE30
0DD58FE400
02BED81000
ENDCHAR
STARTCHAR c
ENCODING 99
SWIDTH 465 0
DWIDTH 9 0
BBX 10 10 0 0
BITMAP
00006CED50
001BF93CE0
00BF900CF2
07FD107FD0
0DF700BF50
2FF2000100
4FE0000000
3FE0002600
0DF736E600
02BEEB4000
ENDCHAR
STARTCHAR d
ENCODING 100
SWIDTH 557 0
DWIDTH 11 0
BBX 13 17 0 0
BITMAP
00000000000550
00000000003FD0
0000000000AF70
0000000001FF20
0000000006FB00
000000000BF600
000000001FF100
00003BEC8FB000
0006FC37FF7000
005FC002FF2000
02EF2006FD0000
08F9000BF80000
0EF4003FF40000
1FF100BFF00000
2FF006FFC00000
0EF56E6FC34000
04DEB30AFC3000
ENDCHAR
STARTCHAR e
ENCODING 101
SWIDTH 471 0
DWIDTH 9 0
BBX 10 10 0 0
BITMAP
00005CFD50
0009F83EE0
008F900DF1
04FE105FE0
0BF905EF50
0FFABFD400
3FF8730000
2FF1000500
0BF835CD00
019EFD9100
ENDCHAR
STARTCHAR f
ENCODING 102
SWIDTH 393 0
DWIDTH 8 0
BBX 12 19 -1 -3
BITMAP
00000006DEA1
0000006FA5F9
000001EE13FB
000007F91DF7
00000CF40980
00001FE00000
00006F900000
0000BFDCA200
007EFFFFF700
008AFC100000
0009F7000000
000EF3000000
003FD0000000
008F90000000
00DF50000000
03FE00000000
09F900000000
1EF300000000
4E8000000000
ENDCHAR
STARTCHAR g
ENCODING 103
SWIDTH 526 0
DWIDTH 11 0
BBX 11 16 0 -6
BITMAP
00005CEC2620
0009F939EF90
009FA002FF30
04FE1006FD00
0BF9000CF800
1FF4004FF300
3FF100CFD000
3FF008FF9000
0EF48EDF4000
04DEA2FD0000
000006F70000
00001DE10000
00008F600000
0007FA000000
05CFA1000000
038400000000
ENDCHAR
STARTCHAR h
ENCODING 104
SWIDTH 555 0
DWIDTH 11 0
BBX 11 17 0 0
BITMAP
000016200000
00005FB00000
00008FA00000
0000BF700000
0000EF300000
0003FE000000
0007F9000000
000CF51AEA00
001FE1CEFF40
006F99B1EF30
00BF9B05FE00
02FFC10CF800
07FF304FF200
0DF6009FA000
5FD000DF6000
CF6000DF6500
AC00005EE700
ENDCHAR
STARTCHAR i
ENCODING 105
SWIDTH 286 0
DWIDTH 6 0
BBX 7 15 0 0
BITMAP
0003DE30
0008FF50
0002CA00
00000000
00000000
009ED000
006FE000
006FA000
00BF3000
03FC0000
09F50000
1ED00000
5FA00000
6FFE2000
1CE80000
ENDCHAR
STARTCHAR j
ENCODING 106
SWIDTH 281 0
DWIDTH 6 0
BBX 10 20 -4 -5
BITMAP
0000000AF9
0000001FFC
00000008C4
0000000000
0000000000
000000BEA0
0000009FC0
0000008FA0
000000AF70
000000DF40
000002FE00
000007FA00
00000CF400
00003FD000
00009F7000
0002FD1000
000AF50000
005FA00000
05EB000000
4E80000000
ENDCHAR
STARTCHAR k
ENCODING 107
SWIDTH 497 0
DWIDTH 10 0
BBX 11 17 0 0
BITMAP
000016100000
00005F900000
00008F900000
0000BF600000
0000EF200000
0003FD000000
0007F8000000
000CF308EA00
001FD005FF10
006F801BFB00
00BF23CFB100
02FEAFB50000
07FFF9000000
0DF7FE100000
5FC0BFB00000
CF503FFDC400
BC0004DE8000
ENDCHAR
STARTCHAR l
ENCODING 108
SWIDTH 279 0
DWIDTH 6 0
BBX 7 17 0 0
BITMAP
00003600
0000AF50
0000DF40
0001FF20
0004FD00
0008F900
000DF400
002FE000
007F9000
00CF4000
02FE0000
07F90000
0CF50000
2FF10000
5FC00000
4FC55000
0BE90000
ENDCHAR
STARTCHAR m
ENCODING 109
SWIDTH 814 0
DWIDTH 16 0
BBX 16 10 0 0
BITMAP
009EA019EA007EC1
006FE0BFEF18EFF7
006FAAD29E6D2BF6
00AFAD10ECE22FE1
01FFD206FF509F80
07FF400DF902FF10
0DF7005FD107FA00
5FD000CF600AF600
CF6003FE000AFDD1
AD1003E60003DE50
ENDCHAR
STARTCHAR n
ENCODING 110
SWIDTH 561 0
DWIDTH 11 0
BBX 11 10 0 0
BITMAP
009E901AEB10
006FD1CEFF60
006FABB1CF50
00AFBC13FF10
01FFD20AFA00
07FF402FF300
0DF7007FC000
5FD000BF7000
CF6000BF6510
AD10004DE800
ENDCHAR
STARTCHAR o
ENCODING 111
SWIDTH 514 0
DWIDTH 10 0
BBX 10 10 0 0
BITMAP
00007DFD50
001BFA3DF3
00BFA009F7
05FE100AF8
0CF8000EF6
1FF3004FF2
3FE000BFA0
3FD006FE20
0DF46FE300
03BEE91000
ENDCHAR
STARTCHAR p
ENCODING 112
SWIDTH 550 0
DWIDTH 11 0
BBX 13 15 -2 -5
BITMAP
0002DE42AED400
0000CF9E84FE00
0000CFF700EF30
0000FFB000FF40
0004FF2003FF10
0008FA0008FB00
000CF5002EF300
002FF301CF8000
006FFA5CF80000
00BF7CEB400000
01FF1000000000
05FA0000000000
0BF50000000000
2FE00000000000
3E600000000000
ENDCHAR
STARTCHAR q
ENCODING 113
SWIDTH 533 0
DWIDTH 11 0
BBX 11 15 0 -5
BITMAP
00003BED3420
0007FB38EFB0
007FB003FF60
03FF2008FE10
0AF9000CF800
0EF4005FF200
2FF100CFA000
2FF007FF4000
0DF47DCD0000
04DEA3F80000
000008F40000
00000DE00000
00002FC00000
00002FC00000
00000BC00000
ENDCHAR
STARTCHAR r
ENCODING 114
SWIDTH 407 0
DWIDTH 8 0
BBX 9 10 0 0
BITMAP
00CE605DB0
00AFA4FFF0
009F8E8980
00CFA70000
01FFB00000
06FE200000
0CF8000000
2FF2000000
8FA0000000
6E30000000
ENDCHAR
STARTCHAR s
ENCODING 115
SWIDTH 423 0
DWIDTH 8 0
BBX 9 10 0 0
BITMAP
0006CED700
008F73CF50
00EF108F50
00FF503600
00AFE20000
002EFB0000
0105FF3000
7F00DF4000
AF85EC1000
2BEE910000
ENDCHAR
STARTCHAR t
ENCODING 116
SWIDTH 358 0
DWIDTH 7 0
BBX 8 13 1 0
BITMAP
00006300
0008F900
002FF200
1CFFFFD3
01FF3100
05FB0000
0AF60000
0EF20000
3FC00000
5F900000
7F802600
5FEBF500
0AFC5000
ENDCHAR
STARTCHAR u
ENCODING 117
SWIDTH 553 0
DWIDTH 11 0
BBX 11 10 0 0
BITMAP
008EB0001DB0
005FF1009FA0
006FD002FF30
00CF800AFC00
03FF203FF500
0AFB00CFE000
2FF508CF9000
6FD05C7F5000
7FB5B1AF7400
2DE8104EE700
ENDCHAR
STARTCHAR v
ENCODING 118
SWIDTH 510 0
DWIDTH 10 0
BBX 10 10 0 0
BITMAP
007EC009E7
005FF107FE
005FC004FE
00BF6004FB
03FE1007F6
09F8000DE1
1EF2007F40
4FC006F700
5FE8BF6000
1BFD920000
ENDCHAR
STARTCHAR w
ENCODING 119
SWIDTH 750 0
DWIDTH 15 0
BBX 15 10 0 0
BITMAP
00BEA0001200CE40
008FE001EF10AFA0
004FB009FB006FB0
009F602FF3005F80
00EE10CFC0008F30
05F907FF6000DC00
0BF34EBF3005F300
1FD4E4AF403E7000
4FEE507FC9E80000
1DC3001BFC500000
ENDCHAR
STARTCHAR x
ENCODING 120
SWIDTH 467 0
DWIDTH 9 0
BBX 12 10 -1 0
BITMAP
0002C6004DD2
000AF606FD30
000BF74FC100
000AF9DC1000
0007FFD10000
0003FF300000
0006FF500000
005FDFA00000
07F91EF54100
4E7003DEA000
ENDCHAR
STARTCHAR y
ENCODING 121
SWIDTH 549 0
DWIDTH 11 0
BBX 11 16 0 -6
BITMAP
007EC1001CC0
004FF2007FC0
004FE001EF70
00AF9008FF20
02FF401EFC00
09FD009FF700
1EF605DEF200
5FE13D5FB000
6FC4D38F6000
1CEA20EE1000
000005F80000
00000DE10000
00008F600000
0007FA000000
03AFB1000000
06B700000000
ENDCHAR
STARTCHAR z
ENCODING 122
SWIDTH 430 0
DWIDTH 9 0
BBX 10 10 0 0
BITMAP
009C866BC0
005EEDBFF2
000003DF70
00005EF700
0006FF5000
008FE30000
07FD200000
4FE2230000
CFDEFFD100
8E9658D400
ENDCHAR
STARTCHAR braceleft
ENCODING 123
SWIDTH 424 0
DWIDTH 9 0
BBX 10 22 1 -4
BITMAP
0000002CEC
000000DF71
000005FC00
00000AF700
00000DF200
00002FE000
00007FA000
0000CF6000
0004FE1000
003DF60000
0DFF800000
09F5000000
01FC000000
02FD000000
07FA000000
0CF4000000
3FD0000000
8F80000000
DF40000000
EF40000000
9FF4000000
0220000000
ENDCHAR
STARTCHAR bar
ENCODING 124
SWIDTH 306 0
DWIDTH 6 0
BBX 3 21 2 -3
BITMAP
3D30
7F50
8F50
8F50
8F50
8F50
8F50
8F50
8F50
8F50
8F50
8F40
8F40
8F40
8F40
8F40
8F40
8F40
8F40
8F40
6C10
ENDCHAR
STARTCHAR braceright
ENCODING 125
SWIDTH 424 0
DWIDTH 9 0
BBX 11 22 -2 -4
BITMAP
00000007ED30
000000019FA0
000000007FA0
00000000AF70
00000000EF20
00000004FC00
0000000AF700
0000000EF200
0000002FD000
0000002FC000
0000000AF400
0000008EFA00
00000AFC4100
00004FE10000
0000AF700000
0001EF100000
0004FC000000
0009F8000000
000EF3000000
008FC0000000
2EFD20000000
012000000000
ENDCHAR
STARTCHAR asciitilde
ENCODING 126
SWIDTH 624 0
DWIDTH 12 0
BBX 11 4 1 5
BITMAP
018EE91001D0
0CFEFFB10AC0
7E208FFEEE30
A40006DEB200
ENDCHAR
STARTCHAR nonbreakingspace
ENCODING 160
SWIDTH 293 0
DWIDTH 6 0
BBX 1 1 0 0
BITMAP
00
ENDCHAR
STARTCHAR exclamdown
ENCODING 161
SWIDTH 417 0
DWIDTH 8 0
BBX 8 16 0 -5
BITMAP
00001BD3
00007FF9
00003DE4
00000000
00009500
0006F200
001EC000
008F7000
01EF2000
06FD0000
0BF90000
1FF50000
4FF20000
6FE00000
5FC00000
0B900000
ENDCHAR
STARTCHAR cent
ENCODING 162
SWIDTH 487 0
DWIDTH 10 0
BBX 9 15 1 0
BITMAP
0000003D80
000000BE20
000004F800
0007EFFB00
009FE57F60
07FF306F70
1EF702EF40
5FF102E900
7FC0000000
7FB0001000
3FE305E400
06EFFD6000
00CA100000
01F5000000
02E1000000
ENDCHAR
STARTCHAR sterling
ENCODING 163
SWIDTH 665 0
DWIDTH 13 0
BBX 15 15 -1 0
BITMAP
0000000001AED700
000000001DF56F30
00000000BF701F70
00000004FE105F70
0000000CF801DF40
0000004FF22CFC00
0000009FC08FF300
000001EF70173000
0003BEFFFE600000
00027DFA23200000
00002FF300000000
05DEDFB000000000
3F55FFF930049000
6F3BF89FFFFFC000
1BFD6003AEFC2000
ENDCHAR
STARTCHAR currency
ENCODING 164
SWIDTH 572 0
DWIDTH 11 0
BBX 11 13 1 0
BITMAP
0005A0000240
000BF0006FC0
0009FCECFA10
001BF94FE000
00AFA00CF300
04FE200EF400
0AFA003FF200
0CF5009FC000
0CF303FF4000
09F62DF70000
1EDFFDF50000
AB01109A0000
410000270000
ENDCHAR
STARTCHAR yen
ENCODING 165
SWIDTH 583 0
DWIDTH 12 0
BBX 14 15 1 0
BITMAP
3DE40000004DD2
ADFE100005FFA0
01DF70003FF900
005FC001DFA000
000DF109FC1000
0007F43FE20000
0002F6BF500000
0000DCFB000000
0011BFF4100000
05FFFFEC600000
0156FE32000000
1EFFFFFD000000
024CF630000000
000DE000000000
000D9000000000
ENDCHAR
STARTCHAR brokenbar
ENCODING 166
SWIDTH 292 0
DWIDTH 6 0
BBX 2 21 2 -3
BITMAP
6D
CF
CF
CF
CF
CF
CF
CF
A9
00
00
00
6D
CF
CF
CF
CF
CF
CF
CF
A9
ENDCHAR
STARTCHAR section
ENCODING 167
SWIDTH 583 0
DWIDTH 12 0
BBX 12 21 0 -5
BITMAP
0000005CED80
000006FC45F9
00001EF200BE
00005FE002EF
00005FF13EFA
00003FF64DA1
00001DFC0000
0007EDFF5000
007FA0BFD000
00EF203FF500
02FF200BFA00
00FF6006FC00
00AFE106FA00
003FF94DE200
0009FFE92000
0001EF800000
4E207FA00000
CF204F900000
CF709F300000
3DFFC4000000
001100000000
ENDCHAR
STARTCHAR dieresis
ENCODING 168
SWIDTH 412 0
DWIDTH 8 0
BBX 9 3 0 12
BITMAP
0BE705ED10
2FFB0AFF30
09C303D800
ENDCHAR
STARTCHAR copyright
ENCODING 169
SWIDTH 871 0
DWIDTH 17 0
BBX 16 15 1 0
BITMAP
0000028CEFDA3000
00007FC6324AF800
000AF605CEA16F80
008F508FB4C90AF2
04F806FC00BB04F7
0BE11EF304FA01F9
2F905FC04FF400FA
5F609F803D7002F9
6F40AF50000005F5
6F409F6000000BE1
4F704FB13C504F70
0DD006EFF902EB00
05F90002104EC200
006FC5225AFA1000
00029DEFD9300000
ENDCHAR
STARTCHAR ordfeminine
ENCODING 170
SWIDTH 564 0
DWIDTH 11 0
BBX 10 10 2 5
BITMAP
0004CE88D1
008FA4EFD0
06FB00BF70
1EF201FF10
7FA007FA00
AF601EF400
CF308FF100
9F45DCF110
2DFC37FE50
0010002100
ENDCHAR
STARTCHAR guillemotleft
ENCODING 171
SWIDTH 662 0
DWIDTH 13 0
BBX 12 8 1 2
BITMAP
00002B4002B4
0007EA007FA0
04DF704DF700
5FE406FE4000
6FC106FC1000
08FB008FB000
009FA009FA00
0009E2009E20
ENDCHAR
STARTCHAR logicalnot
ENCODING 172
SWIDTH 729 0
DWIDTH 15 0
BBX 12 7 1 1
BITMAP
4EFFFFFFFFFA
0222222222EC
0000000000FB
0000000001FB
0000000002FA
0000000002F7
000000000010
ENDCHAR
STARTCHAR uni00AD
ENCODING 173
SWIDTH 833 0
DWIDTH 17 0
BBX 1 1 0 0
BITMAP
00
ENDCHAR
STARTCHAR registered
ENCODING 174
SWIDTH 742 0
DWIDTH 15 0
BBX 14 13 1 2
BITMAP
000018CFEC7000
0004EB5326DC10
004F65AB931DA0
01E74E84BE05F2
08C005C07F11F4
0D700CA6E802F4
1F402FEE5004F2
2F407F3F600AC0
0E71E709E54F50
09E2300044EA00
01DD52249F9000
0019EFFFC50000
00000231000000
ENDCHAR
STARTCHAR macron
ENCODING 175
SWIDTH 392 0
DWIDTH 8 0
BBX 8 2 1 11
BITMAP
5EFFFFE3
12222210
ENDCHAR
STARTCHAR degree
ENCODING 176
SWIDTH 405 0
DWIDTH 8 0
BBX 7 7 2 8
BITMAP
019EEB10
1DE57F80
8F604FA0
CF208F70
AF34FD10
3DFFB200
00110000
ENDCHAR
STARTCHAR plusminus
ENCODING 177
SWIDTH 617 0
DWIDTH 12 0
BBX 11 13 1 0
BITMAP
00004D000000
00007F000000
00007F000000
00007F000000
6EFFFFFFFE20
12228F222100
00007F000000
00007F000000
00007F000000
00006A000000
000000000000
022222222200
7FFFFFFFFE20
ENDCHAR
STARTCHAR twosuperior
ENCODING 178
SWIDTH 458 0
DWIDTH 9 0
BBX 9 11 1 4
BITMAP
0004CED600
003FB3AF40
00AF307F70
00AF60CF60
002939FD10
00009FE300
001CFD3000
03DF910000
2EF5016100
5FCBEFD000
0100020000
ENDCHAR
STARTCHAR threesuperior
ENCODING 179
SWIDTH 430 0
DWIDTH 9 0
BBX 9 11 1 4
BITMAP
0002BED600
001EB3CF30
006F409F60
005F61DF40
00032BFA00
0006FF9000
0007CF6000
07503FC000
5F705FB000
5F73DE3000
08EEA20000
ENDCHAR
STARTCHAR acute
ENCODING 180
SWIDTH 322 0
DWIDTH 6 0
BBX 6 5 1 11
BITMAP
000680
001EF3
007FD0
03FD20
1D8100
ENDCHAR
STARTCHAR mu
ENCODING 181
SWIDTH 618 0
DWIDTH 12 0
BBX 13 15 -1 -5
BITMAP
00001CB0002E90
00009FA000BF80
0003FF2005FE10
000AFA000DF900
002FF3007FF200
008FC002FFB000
00EF801CEF6000
05FF61BAAF4000
09FFEDB1AFDD10
0EECE9003EE500
2FB00000000000
5F800000000000
7F500000000000
9F300000000000
6D100000000000
ENDCHAR
STARTCHAR paragraph
ENCODING 182
SWIDTH 739 0
DWIDTH 15 0
BBX 17 18 0 -2
BITMAP
0000000048BDEFFFB0
0000007DFFFA3CF600
00001BFFFFC01FF200
0000AFFFFF704FD000
0001FFFFFF308F9000
0003FFFFFE00BF5000
0001EFFFFB00FF1000
00005FFFF704FB0000
000003AFF308F60000
0000006FE00DF10000
000000BFA02FB00000
000000EF407F500000
004305FE00CE100000
0AFC0AF702F9000000
4FE12FD108F3000000
5FA0BE300EA0000000
1CFED3006D20000000
002200001100000000
ENDCHAR
STARTCHAR periodcentered
ENCODING 183
SWIDTH 353 0
DWIDTH 7 0
BBX 4 3 2 5
BITMAP
3ED4
8FF8
3DC2
ENDCHAR
STARTCHAR cedilla
ENCODING 184
SWIDTH 301 0
DWIDTH 6 0
BBX 4 5 1 -4
BITMAP
04C1
00C8
01EA
3CF7
5EA1
ENDCHAR
STARTCHAR onesuperior
ENCODING 185
SWIDTH 403 0
DWIDTH 8 0
BBX 6 11 2 4
BITMAP
0004DA
005FFF
2AFEFC
395AF7
001EF1
005FA0
00BF30
03FB00
0BF300
3F6000
350000
ENDCHAR
STARTCHAR ordmasculine
ENCODING 186
SWIDTH 498 0
DWIDTH 10 0
BBX 8 10 2 5
BITMAP
0007CEA1
01BF85FA
0AF800FE
3FE101FE
9F8006FC
CF400BF7
CF205FD1
9F43EE30
1CFFB300
00110000
ENDCHAR
STARTCHAR guillemotright
ENCODING 187
SWIDTH 665 0
DWIDTH 13 0
BBX 11 8 1 2
BITMAP
09D3009D3000
04FE204FE200
005FD205FD20
0007FD007FC0
001AFC01AFC0
02CF812CF800
4EC304EB2000
B6000B600000
ENDCHAR
STARTCHAR onequarter
ENCODING 188
SWIDTH 988 0
DWIDTH 20 0
BBX 17 16 2 0
BITMAP
00000000003D500000
0009E40001DD100000
01BFF90008F5000000
6EEEF6002FB0000000
563FF100BF30000000
006FA004F909600000
00BF400DE10FF00000
03FD007F604FD00000
09F501EC00AF80C800
2FC009F402FF21FD00
9E203FA009F806FA00
6200BF200FE21BF600
0005F8000AFFFFFE10
000DD1000034AF4100
007F50000002F90000
00D900000009900000
ENDCHAR
STARTCHAR onehalf
ENCODING 189
SWIDTH 988 0
DWIDTH 20 0
BBX 17 16 2 0
BITMAP
00000000003D500000
0008E50001DD100000
009FF90008F5000000
3BFFF6002FB0000000
AB5EF100BF30000000
005FA004F900000000
00BF400DE105CED700
02FC007F605FA3AF50
09F501EC00AF406F80
2FB009F4005E60CF60
AD103FA0000009FD10
4200BF200001AFE300
0005F800002CFC2000
000DD10004EF800000
007F50002EF6238100
00D900004FFFFFB000
ENDCHAR
STARTCHAR threequarters
ENCODING 190
SWIDTH 1007 0
DWIDTH 20 0
BBX 19 16 0 0
BITMAP
00000000000004D50000
0001AEE910001ED10000
000CD38F80009F500000
003F805FA003FB000000
001B71CF500BF3000000
00006DF8005F90830000
0007FF7000DE10FC0000
02301EF107F604FA0000
1EC01FF11EC00AF41D40
2FB1AF709F402FC05F70
06DEB403FA00AF40AF30
0000000BE201FB13EE10
0000005F7000AFFFFF70
000001DD1000023DC000
000007F50000005F3000
00000D90000000C40000
ENDCHAR
STARTCHAR questiondown
ENCODING 191
SWIDTH 516 0
DWIDTH 10 0
BBX 10 16 0 -5
BITMAP
0000004EB1
000000CFF4
0000007EC1
0000000000
0000009800
000005F800
00005FF200
0008FF6000
01CFF60000
1DFD300000
8FD22B7000
DF205FE000
DC003FD000
9E21BF5000
1BFFE60000
0012000000
ENDCHAR
STARTCHAR Agrave
ENCODING 192
SWIDTH 615 0
DWIDTH 12 0
BBX 15 20 -2 0
BITMAP
0000000000044000
00000000002FD000
00000000001EF700
000000000002AE30
0000000000000000
000000000004BED0
00000000009EBFC0
000000001BD29F60
00000000BD11FF10
00000008F307FA00
0000004F700DF400
000000DC004FE000
000019FDDEFFFF50
0005EFDCCCFFC810
0001BE1002FF1000
0004F80006FC0000
000CE10009F90000
008F70000BF70000
18FC000009F94200
7EA1000003DEA100
ENDCHAR
STARTCHAR Aacute
ENCODING 193
SWIDTH 615 0
DWIDTH 12 0
BBX 17 20 -2 0
BITMAP
000000000000005600
00000000000001EF10
0000000000000AFA00
0000000000007D6000
000000000000000000
000000000004BED000
00000000009EBFC000
000000001BD29F6000
00000000BD11FF1000
00000008F307FA0000
0000004F700DF40000
000000DC004FE00000
000019FDDEFFFF5000
0005EFDCCCFFC81000
0001BE1002FF100000
0004F80006FC000000
000CE10009F9000000
008F70000BF7000000
18FC000009F9420000
7EA1000003DEA10000
ENDCHAR
STARTCHAR Acircumflex
ENCODING 194
SWIDTH 615 0
DWIDTH 12 0
BBX 17 20 -2 0
BITMAP
000000000000034000
0000000000005EF200
00000000002AFBF900
0000000001EB31BE20
000000000000000000
000000000004BED000
00000000009EBFC000
000000001BD29F6000
00000000BD11FF1000
00000008F307FA0000
0000004F700DF40000
000000DC004FE00000
000019FDDEFFFF5000
0005EFDCCCFFC81000
0001BE1002FF100000
0004F80006FC000000
000CE10009F9000000
008F70000BF7000000
18FC000009F9420000
7EA1000003DEA10000
ENDCHAR
STARTCHAR Atilde
ENCODING 195
SWIDTH 615 0
DWIDTH 12 0
BBX 18 19 -2 0
BITMAP
00000000005CEA22C1
0000000005FDEFFD40
000000000110011000
000000000000000000
000000000004BED000
00000000009EBFC000
000000001BD29F6000
00000000BD11FF1000
00000008F307FA0000
0000004F700DF40000
000000DC004FE00000
000019FDDEFFFF5000
0005EFDCCCFFC81000
0001BE1002FF100000
0004F80006FC000000
000CE10009F9000000
008F70000BF7000000
18FC000009F9420000
7EA1000003DEA10000
ENDCHAR
STARTCHAR Adieresis
ENCODING 196
SWIDTH 615 0
DWIDTH 12 0
BBX 17 19 -2 0
BITMAP
0000000002DE507EB0
0000000005FF80DFF0
0000000001BB106D60
000000000000000000
000000000004BED000
00000000009EBFC000
000000001BD29F6000
00000000BD11FF1000
00000008F307FA0000
0000004F700DF40000
000001DC004FE00000
000019FDDEFFFF5000
0005FFDCCCFFC81000
0001BE1002FE000000
0004F80006FB000000
000DE10009F8000000
008F70000BF7000000
18FC000009FDC50000
7EA1000003DE900000
ENDCHAR
STARTCHAR Aring
ENCODING 197
SWIDTH 615 0
DWIDTH 12 0
BBX 17 19 -2 0
BITMAP
0000000000019DD600
00000000000BE4CF10
00000000002F809F10
00000000003F83EB00
00000000000EFFF100
00000000009FFFC000
000000001BF77F6000
00000000AE41EF1000
00000008F506FA0000
0000003F800DF40000
000000DD004FE00000
000018FDDEFFFF5000
0004EFEDDDFFD91000
0002BF2002FF100000
0003F80006FC000000
000CE10009F9000000
008F70000BF7000000
18FC00000AF9420000
7EA1000003DEA10000
ENDCHAR
STARTCHAR AE
ENCODING 198
SWIDTH 878 0
DWIDTH 18 0
BBX 22 15 -2 0
BITMAP
000000000006CFC8DFEB30
0000000001BFEEFFB53AD0
000000000BF93DF80009F1
000000009F80BFB0007FD0
00000005FA02FF300AFF50
0000002ED104FD001DE600
000000BF3002FD00001000
000007FDACDDFFCC900000
0002BFFFFFFFFFFD700000
0002DF400009FF60000000
0005FB00005FF400000000
001DF20000AFA000180000
008F800000BF8001BF1000
07FD0000006FE67EF70000
4EC200000006DFEA400000
ENDCHAR
STARTCHAR Ccedilla
ENCODING 199
SWIDTH 533 0
DWIDTH 11 0
BBX 12 20 1 -5
BITMAP
0000029DEB20
00006FE63BD0
0008FD1009F2
005FE2001EF2
01EF5001BFC0
09FC000CFF40
1EF50009D500
6FE000000000
AFA000000000
DF7000000000
EF5000000000
EF6000000000
BF90002A1000
4FE537EE1000
04EFEC820000
004E10000000
004F50000000
02CF30000000
0DFC00000000
036100000000
ENDCHAR
STARTCHAR Egrave
ENCODING 200
SWIDTH 509 0
DWIDTH 10 0
BBX 12 20 0 0
BITMAP
000000053000
0000005FB000
0000003FF400
00000003BD10
000000000000
0000029DFD81
00006FF833E8
0006FE4001EA
002FF6001BF7
007FC003DFD1
00AF7005FC20
009F70001000
002ED7930000
0019FFE60000
01CFE6000000
0AFE20000000
1FF600013000
2FF2002DA000
0CF736EE3000
02AEFD920000
ENDCHAR
STARTCHAR Eacute
ENCODING 201
SWIDTH 509 0
DWIDTH 10 0
BBX 12 20 0 0
BITMAP
000000000074
0000000003FD
000000001CF7
00000000AC40
000000000000
0000029DFD81
00006FF833E8
0006FE4001EA
002FF6001BF7
007FC003DFD1
00AF7005FC20
009F70001000
002ED7930000
0019FFE60000
01CFE6000000
0AFE20000000
1FF600013000
2FF2002DA000
0CF736EE3000
02AEFD920000
ENDCHAR
STARTCHAR Ecircumflex
ENCODING 202
SWIDTH 509 0
DWIDTH 10 0
BBX 12 20 0 0
BITMAP
000000000530
000000007FD0
0000003CECF6
000003EA22DD
000000000000
0000029DFD81
00006FF833E8
0006FE4001EA
002FF6001BF7
007FC003DFD1
00AF7005FC20
009F70001000
002ED7930000
0019FFE60000
01CFE6000000
0AFE20000000
1FF600013000
2FF2002DA000
0CF736EE3000
02AEFD920000
ENDCHAR
STARTCHAR Edieresis
ENCODING 203
SWIDTH 509 0
DWIDTH 10 0
BBX 13 19 0 0
BITMAP
000004ED20AF80
000009FF41FFC0
000003C9008C30
00000000000000
0000029DFD8100
00006FF833E800
0006FE4001EA00
002FF6001BF700
007FC003DFD100
00AF7005FC2000
009F7000100000
002ED793000000
0019FFE6000000
01CFE600000000
0AFE2000000000
1FF60001300000
2FF2002DA00000
0CF736EE300000
02AEFD92000000
ENDCHAR
STARTCHAR Igrave
ENCODING 204
SWIDTH 327 0
DWIDTH 7 0
BBX 9 20 -1 0
BITMAP
0000035000
00001FE100
00000DF800
0000019E40
0000000000
0007DFD500
000696FD00
000005FD00
000008FB00
00000CF700
00001FF300
00005FE000
0000AF9000
0001EF4000
0005FD0000
000CF70000
004FE10000
00CF600000
08FA000000
1E90000000
ENDCHAR
STARTCHAR Iacute
ENCODING 205
SWIDTH 327 0
DWIDTH 7 0
BBX 11 20 -1 0
BITMAP
000000005600
00000000DF20
00000009FB00
0000006D7000
000000000000
0007DFD50000
000696FD0000
000005FD0000
000008FB0000
00000CF70000
00001FF30000
00005FE00000
0000AF900000
0001EF400000
0005FD000000
000CF7000000
004FE1000000
00CF60000000
08FA00000000
1E9000000000
ENDCHAR
STARTCHAR Icircumflex
ENCODING 206
SWIDTH 327 0
DWIDTH 7 0
BBX 11 20 -1 0
BITMAP
000000025000
0000004EF300
000029FBFA00
0001DC40AE30
000000000000
0007DFD50000
000696FD0000
000005FD0000
000008FB0000
00000CF70000
00001FF30000
00005FE00000
0000AF900000
0001EF400000
0005FD000000
000CF7000000
004FE1000000
00CF60000000
08FA00000000
1E9000000000
ENDCHAR
STARTCHAR Idieresis
ENCODING 207
SWIDTH 327 0
DWIDTH 7 0
BBX 12 19 -1 0
BITMAP
0001CE606EC1
0004FF90CFF1
0000AB205D70
000000000000
0007DFD50000
000696FD0000
000005FD0000
000008FB0000
00000CF70000
00001FF30000
00005FE00000
0000AF900000
0001EF400000
0005FD000000
000CF7000000
004FE1000000
00CF60000000
08FA00000000
1E9000000000
ENDCHAR
STARTCHAR Eth
ENCODING 208
SWIDTH 630 0
DWIDTH 13 0
BBX 13 15 0 0
BITMAP
0039CEFEC82000
01FFD6325CF600
0047120001DF30
0000BFA0007F90
0004FF40005FC0
000BFB00007FB0
2DFFFFFF109F90
4BEFDBB601EF50
00EF500006FE10
05FE00001EF600
0AF90000CFB000
0DF4000AFC1000
2FF102BFC10000
1FD37EF8000000
05DED820000000
ENDCHAR
STARTCHAR Ntilde
ENCODING 209
SWIDTH 708 0
DWIDTH 14 0
BBX 16 19 0 0
BITMAP
0000000003CE500B
000000003EEFE279
000000008806FF90
0000000010001100
0000019E70007EA0
00000BFF70005FF5
00007FEF40000EF7
0002F8CF30000EF5
000AE1DF40002FE1
002F80DF40006F90
009F20CF6000BF20
01EB00BF8003F900
06F6009FB00AE100
0BF2006FE02F7000
1FC0002FF38D1000
4F90000DF8E60000
7F500007FFE00000
9F300001EF800000
5E0000004D500000
ENDCHAR
STARTCHAR Ograve
ENCODING 210
SWIDTH 655 0
DWIDTH 13 0
BBX 13 20 1 0
BITMAP
00000000610000
00000008F80000
00000005FE2000
000000005CC000
00000000000000
0000018DFE9100
00005EF736FB00
0005FE4000CF30
003FF60000AF60
00CFA00000BF60
06FF200000EF50
0DF8000003FF20
3FF2000008FC00
7FC000001EF700
AF8000007FE100
BF500001EF6000
BF40000BFB0000
8F60008FC10000
2ED44BFB100000
02BEEB50000000
ENDCHAR
STARTCHAR Oacute
ENCODING 211
SWIDTH 655 0
DWIDTH 13 0
BBX 13 20 1 0
BITMAP
00000000001820
00000000006FA0
0000000002EF40
000000000CB300
00000000000000
0000018DFE9100
00005EF736FB00
0005FE4000CF30
003FF60000AF60
00CFA00000BF60
06FF200000EF50
0DF8000003FF20
3FF2000008FC00
7FC000001EF700
AF8000007FE100
BF500001EF6000
BF40000BFB0000
8F60008FC10000
2ED44BFB100000
02BEEB50000000
ENDCHAR
STARTCHAR Ocircumflex
ENCODING 212
SWIDTH 655 0
DWIDTH 13 0
BBX 13 20 1 0
BITMAP
00000000006200
000000001AFB00
00000005DDDF30
0000006E814EA0
00000000000000
0000018DFE9100
00005EF736FB00
0005FE4000CF30
003FF60000AF60
00CFA00000BF60
06FF200000EF50
0DF8000003FF20
3FF2000008FC00
7FC000001EF700
AF8000007FE100
BF500001EF6000
BF40000BFB0000
8F60008FC10000
2ED44BFB100000
02BEEB50000000
ENDCHAR
STARTCHAR Otilde
ENCODING 213
SWIDTH 655 0
DWIDTH 13 0
BBX 14 19 1 0
BITMAP
00000019EE7069
000000AEDFFFA1
00000010002100
00000000000000
0000018DFE9100
00005EF736FB00
0005FE4000CF30
003FF60000AF60
00CFA00000BF60
06FF200000EF50
0DF8000003FF20
3FF2000008FC00
7FC000001EF700
AF8000007FE100
BF500001EF6000
BF40000BFB0000
8F60008FC10000
2ED44BFB100000
02BEEB50000000
ENDCHAR
STARTCHAR Odieresis
ENCODING 214
SWIDTH 655 0
DWIDTH 13 0
BBX 14 19 1 0
BITMAP
0000006EC11CE6
000000BFF14FF9
0000004D700AB2
00000000000000
0000018DFE9100
00005EF736FB00
0005FE4000CF30
003FF60000AF60
00CFA00000BF60
06FF200000EF50
0DF8000003FF20
3FF2000008FC00
7FC000001EF700
AF8000007FE100
BF500001EF6000
BF40000BFB0000
8F60008FC10000
2ED44BFB100000
02BEEB50000000
ENDCHAR
STARTCHAR multiply
ENCODING 215
SWIDTH 573 0
DWIDTH 11 0
BBX 9 8 2 3
BITMAP
BA00005E30
4EA005F900
04F95F9000
005FF90000
005FF80000
05FA7F7000
5FA008F600
D900008E00
ENDCHAR
STARTCHAR Oslash
ENCODING 216
SWIDTH 655 0
DWIDTH 13 0
BBX 14 19 1 -2
BITMAP
000000000008E5
00000000005FC1
0000004AEFFF20
000009FD59FF60
0000AFC12FAFD0
0008FE10AD1FF0
003FF404F32FF0
00CFB00C804FE0
03FF306D108FB0
08FB01E400DF70
0DF609A004FF20
1FF22E200CF900
2FE0B8005FE100
2FE5D102EF5000
0EFE601CF70000
07FE35DF600000
06FDEE92000000
0E900000000000
06100000000000
ENDCHAR
STARTCHAR Ugrave
ENCODING 217
SWIDTH 624 0
DWIDTH 12 0
BBX 14 20 0 0
BITMAP
00000001610000
0000000AF60000
00000008FD1000
000000006CA000
00000000000000
0002DE600001E9
0000CFA00009FA
0000BF70002FF3
0002FF20009FC0
0008FC0002FF60
001EF50009FF10
006FD0002FFB00
00DF70009FF600
04FE1003FFF100
0BF9000BEFB000
1FF3005E9F7000
6FD001E4CF4000
8FA00B60FF2000
8FC3B600EF5510
1CFC40006EE800
ENDCHAR
STARTCHAR Uacute
ENCODING 218
SWIDTH 624 0
DWIDTH 12 0
BBX 14 20 0 0
BITMAP
00000000001810
00000000008F80
0000000003FE30
000000001DA200
00000000000000
0002DE600001E9
0000CFA00009FA
0000BF70002FF3
0002FF20009FC0
0008FC0002FF60
001EF50009FF10
006FD0002FFB00
00DF70009FF600
04FE1003FFF100
0BF9000BEFB000
1FF3005E9F7000
6FD001E4CF4000
8FA00B60FF2000
8FC3B600EF5510
1CFC40006EE800
ENDCHAR
STARTCHAR Ucircumflex
ENCODING 219
SWIDTH 624 0
DWIDTH 12 0
BBX 14 20 0 0
BITMAP
00000000006100
000000001BF900
00000006ECEE20
0000008E706E80
00000000000000
0002DE600001E9
0000CFA00009FA
0000BF70002FF3
0002FF20009FC0
0008FC0002FF60
001EF50009FF10
006FD0002FFB00
00DF70009FF600
04FE1003FFF100
0BF9000BEFB000
1FF3005E9F7000
6FD001E4CF4000
8FA00B60FF2000
8FC3B600EF5510
1CFC40006EE800
ENDCHAR
STARTCHAR Udieresis
ENCODING 220
SWIDTH 624 0
DWIDTH 12 0
BBX 14 19 0 0
BITMAP
0000008EB02DE4
000000DFE06FF7
0000006D501BB1
00000000000000
0002DE600001E9
0000CFA00009FA
0000BF70002FF3
0002FF20009FC0
0008FC0002FF60
001EF50009FF10
006FD0002FFB00
00DF70009FF600
04FE1003FFF100
0BF9000BEFB000
1FF3005E9F7000
6FD001E4CF4000
8FA00B60FF2000
8FC3B600EF5510
1CFC40006EE800
ENDCHAR
STARTCHAR Yacute
ENCODING 221
SWIDTH 580 0
DWIDTH 12 0
BBX 14 25 0 -5
BITMAP
00000000003810
0000000000AF60
0000000005FD20
000000003E9100
00000000000000
0003DE600002E8
0001CF90000AF8
0000CF60002FF1
0003FF2000AF90
0009FB0002FF40
001FF5000AFD00
007FD0003FF800
00EF6000AFF200
05FE1003FFC000
0BF8000CFF6000
2FF2006ECF1000
7FC002E5F90000
9F901C59F30000
8FB3B52FA00000
2CEB30BF200000
000006F8000000
00003EC0000000
0003ED20000000
006ED200000000
0BD81000000000
ENDCHAR
STARTCHAR Thorn
ENCODING 222
SWIDTH 527 0
DWIDTH 11 0
BBX 12 15 -1 0
BITMAP
004CFFA00000
003A5EF30000
00001FF20000
00004FF00000
00008FFEC920
0000CF934DE3
0001FF3006FA
0006FD0006FB
000BF8002DF7
002FF217EFB0
008FFDFFE700
01EF76530000
08FA00000000
5FD100000000
CC2000000000
ENDCHAR
STARTCHAR germandbls
ENCODING 223
SWIDTH 520 0
DWIDTH 10 0
BBX 12 19 -1 -3
BITMAP
0000003BEC70
000003ED46F7
00000DF201FB
00006F9004FA
0000DF300CF6
0003FD007FC0
0008F804FC10
000CF41ED100
001FF16F7000
005FC08F8000
009F804FE200
00DF400BFC00
02FF0101DF70
06FB2E505F90
0BF65FD48F40
1FF208EEB400
6FB000000000
DF5000000000
650000000000
ENDCHAR
STARTCHAR agrave
ENCODING 224
SWIDTH 541 0
DWIDTH 11 0
BBX 11 16 0 -1
BITMAP
000002CC0000
000005FD0000
000001ED0000
0000004F3000
000000011000
00005CEA5E90
000AF93AFF80
009F9006FE10
04FD000BF900
0CF7002FF200
2FF2008FB000
4FE002EF7000
4FD00BEF4000
1EE3ABAFB810
05DE916FFB00
000000034000
ENDCHAR
STARTCHAR aacute
ENCODING 225
SWIDTH 541 0
DWIDTH 11 0
BBX 11 17 0 -1
BITMAP
00000001A400
00000006FB00
0000000CF600
0000009F8000
000006C50000
000000000000
00005CEA5E90
000AF93AFF80
009F9006FE10
04FD000BF900
0CF7002FF200
2FF2008FB000
4FE002EF7000
4FD00BEF4000
1EE3ABAFB810
05DE916FFB00
000000034000
ENDCHAR
STARTCHAR acircumflex
ENCODING 226
SWIDTH 541 0
DWIDTH 11 0
BBX 11 17 0 -1
BITMAP
000000002000
00000004EA00
0000006FFE00
00002AF7AF40
0001EB303E80
000000000000
00005CEA5E90
000AF93AFF80
009F9006FE10
04FD000BF900
0CF7002FF200
2FF2008FB000
4FE002EF7000
4FD00BEF4000
1EE3ABAFB810
05DE916FFB00
000000034000
ENDCHAR
STARTCHAR atilde
ENCODING 227
SWIDTH 541 0
DWIDTH 11 0
BBX 12 16 0 -1
BITMAP
000008EB1047
00009EEF91C3
0000D21CFD40
000010002000
000000000000
00005CEA5E90
000AF93AFF80
009F9006FE10
04FD000BF900
0CF7002FF200
2FF2008FB000
4FE002EF7000
4FD00BEF4000
1EE3ABAFB810
05DE916FFB00
000000034000
ENDCHAR
STARTCHAR adieresis
ENCODING 228
SWIDTH 541 0
DWIDTH 11 0
BBX 12 16 0 -1
BITMAP
00009FA03DE3
0000FFD07FF5
00007D402CA0
000000000000
000000000000
00005CEA5E90
000AF93AFF80
009F9006FE10
04FD000BF900
0CF7002FF200
2FF2008FB000
4FE002EF7000
4FD00BEF4000
1EE3ABAFB810
05DE916FFB00
000000034000
ENDCHAR
STARTCHAR aring
ENCODING 229
SWIDTH 541 0
DWIDTH 11 0
BBX 11 16 0 -1
BITMAP
0000018DFB10
00000AE57F60
00000EC09F30
000008FFE600
000000120000
00005CEA5E90
000AF93AFF80
009F9006FE10
04FD000BF900
0CF7002FF200
2FF2008FB000
4FE002EF7000
4FD00BEF4000
1EE3ABAFB810
05DE916FFB00
000000034000
ENDCHAR
STARTCHAR ae
ENCODING 230
SWIDTH 769 0
DWIDTH 15 0
BBX 15 10 0 0
BITMAP
00005CEA5EBCFD50
000AF93AFFE56FE0
009F9007FF304FF0
04FD000BF901CFB0
0CF6002FF35DFC10
2FF1009FFEDA5000
4FE002EFE0000000
4FD00B8FF1002A00
1EF3A90CF937EB00
05DE7002AEFC7100
ENDCHAR
STARTCHAR ccedilla
ENCODING 231
SWIDTH 465 0
DWIDTH 9 0
BBX 10 15 0 -5
BITMAP
00006CED50
001BF93CE0
00BF900DF1
06FD107FD0
0DF700BF40
3FF1000100
5FD0000000
4FE0002600
1EF737E600
04DFFC5000
000D700000
000CB00000
006FA00000
07FF300000
0173000000
ENDCHAR
STARTCHAR egrave
ENCODING 232
SWIDTH 471 0
DWIDTH 9 0
BBX 10 15 0 0
BITMAP
00000BE100
00001FF100
00000BF200
000002D700
0000001200
00005CFD50
0009F83EE0
008F900DF1
04FE105FE0
0BF905EF50
0FFABFD400
3FF8730000
2FF1000500
0BF835CD00
019EFD9100
ENDCHAR
STARTCHAR eacute
ENCODING 233
SWIDTH 471 0
DWIDTH 9 0
BBX 10 16 0 0
BITMAP
0000000860
0000003FF0
000000AFA0
000006FB10
00003D7000
0000000000
00005CFD50
0009F83EE0
008F900DF1
04FE105FE0
0BF905EF50
0FFABFD400
3FF8730000
2FF1000500
0BF835CD00
019EFD9100
ENDCHAR
STARTCHAR ecircumflex
ENCODING 234
SWIDTH 471 0
DWIDTH 9 0
BBX 10 16 0 0
BITMAP
0000000110
0000002DE0
000004EFF3
00018F97F7
000CD501CC
0000000000
00005CFD50
0009F83EE0
008F900DF1
04FE105FE0
0BF905EF50
0FFABFD400
3FF8730000
2FF1000500
0BF835CD00
019EFD9100
ENDCHAR
STARTCHAR edieresis
ENCODING 235
SWIDTH 471 0
DWIDTH 9 0
BBX 11 15 0 0
BITMAP
0006EC11CE60
000BFF14FF90
0005D700AB20
000000000000
000000000000
00005CFD5000
0009F73EE000
008F800EF100
04FD008FB000
0BF73BFC2000
0FFEDA500000
3FF000000000
2FF2002A0000
0BF936EB0000
019EFD810000
ENDCHAR
STARTCHAR igrave
ENCODING 236
SWIDTH 286 0
DWIDTH 6 0
BBX 6 15 0 0
BITMAP
001BE0
002FF0
000CF1
0003E6
000011
009ED0
006FE0
006FA0
00BF30
03FC00
09F500
1ED000
5FA000
6FFE20
1CE800
ENDCHAR
STARTCHAR iacute
ENCODING 237
SWIDTH 286 0
DWIDTH 6 0
BBX 7 16 0 0
BITMAP
00000950
00004FE0
0000AF90
0007FA00
003D6000
00000000
009ED000
006FE000
006FA000
00BF3000
03FC0000
09F50000
1ED00000
5FA00000
6FFE2000
1CE80000
ENDCHAR
STARTCHAR icircumflex
ENCODING 238
SWIDTH 286 0
DWIDTH 6 0
BBX 8 16 0 0
BITMAP
00000110
00002DD0
0004EFF2
019F97F6
0CC401DB
00000000
009ED000
006FE000
006FA000
00BF3000
03FC0000
09F50000
1ED00000
5FA00000
6FFE2000
1CE80000
ENDCHAR
STARTCHAR idieresis
ENCODING 239
SWIDTH 286 0
DWIDTH 6 0
BBX 9 15 0 0
BITMAP
07EC01CE50
0CFF15FF80
05D601BB10
0000000000
0000000000
009ED00000
006FE00000
006FA00000
00BF300000
03FC000000
09F5000000
1ED0000000
5FA0000000
6FFE200000
1CE8000000
ENDCHAR
STARTCHAR eth
ENCODING 240
SWIDTH 524 0
DWIDTH 11 0
BBX 13 17 0 0
BITMAP
00000002500000
00000002F50000
000000009D6610
00000005CFFD50
0000009EAF7000
000001503F8000
000000004F8000
00005CFC8F7000
0009F939FF4000
008F9003FF1000
03FE1007FC0000
0AF8000DF60000
1FF3004FE10000
3FF000CF600000
3FE007FA000000
0DF56FB0000000
03CFC600000000
ENDCHAR
STARTCHAR ntilde
ENCODING 241
SWIDTH 561 0
DWIDTH 11 0
BBX 12 15 0 0
BITMAP
000008EB1047
00009FEFA1C3
0000D21CFD40
000010002000
000000000000
009E901AEB10
006FD1CEFF60
006FABB1CF50
00AFBC13FF10
01FFD20AFA00
07FF402FF300
0DF7007FC000
5FD000BF7000
CF6000BF6510
AD10004DE800
ENDCHAR
STARTCHAR ograve
ENCODING 242
SWIDTH 514 0
DWIDTH 10 0
BBX 10 15 0 0
BITMAP
000001BE10
000002FF00
000000CF10
0000002E60
0000000120
00007DFD50
001BFA3DF3
00BFA009F7
05FE100AF8
0CF8000EF6
1FF3004FF2
3FE000BFA0
3FD006FE20
0DF46FE300
03BEE91000
ENDCHAR
STARTCHAR oacute
ENCODING 243
SWIDTH 514 0
DWIDTH 10 0
BBX 10 16 0 0
BITMAP
0000000096
00000003FE
0000000AF9
0000007FA1
000003D600
0000000000
00007DFD50
001BFA3DF3
00BFA009F7
05FE100AF8
0CF8000EF6
1FF3004FF2
3FE000BFA0
3FD006FE20
0DF46FE300
03BEE91000
ENDCHAR
STARTCHAR ocircumflex
ENCODING 244
SWIDTH 514 0
DWIDTH 10 0
BBX 11 16 0 0
BITMAP
000000001100
00000002DD00
0000004EFF20
000019F97F60
0000CC401DB0
000000000000
00007DFD5000
001BFA3DF300
00BFA009F700
05FE100AF800
0CF8000EF600
1FF3004FF200
3FE000BFA000
3FD006FE2000
0DF46FE30000
03BEE9100000
ENDCHAR
STARTCHAR otilde
ENCODING 245
SWIDTH 514 0
DWIDTH 10 0
BBX 12 15 0 0
BITMAP
000006DD2029
00006FEFC1A5
0000C40AFE60
000010001000
000000000000
00007DFD5000
001BFA3DF300
00BFA009F700
05FE100AF800
0CF8000EF600
1FF3004FF200
3FE000BFA000
3FD006FE2000
0DF46FE30000
03BEE9100000
ENDCHAR
STARTCHAR odieresis
ENCODING 246
SWIDTH 514 0
DWIDTH 10 0
BBX 12 15 0 0
BITMAP
00007EC01CE5
0000CFF15FF8
00005D601BB2
000000000000
000000000000
00007DFD5000
001BFA3DF300
00BFA009F700
05FE100AF800
0CF8000EF600
1FF3004FF200
3FE000BFA000
3FD006FE2000
0DF46FE30000
03BEE9100000
ENDCHAR
STARTCHAR divide
ENCODING 247
SWIDTH 617 0
DWIDTH 12 0
BBX 11 11 1 2
BITMAP
000003000000
00009FD00000
00009FB00000
000014100000
000000000000
3CDDDDDDDD40
144444444400
000013000000
0000DF900000
0000DF800000
000014000000
ENDCHAR
STARTCHAR oslash
ENCODING 248
SWIDTH 514 0
DWIDTH 10 0
BBX 11 14 0 -2
BITMAP
000000002720
00000002EF30
00007DFEF500
001BFA5FF200
00BFA0BBF700
05FE1599F800
0CF81C1CF600
1FF2853FF200
3FD3B0AFB000
2FCB35FE2000
0DFB6FE40000
07FFE9200000
0DB000000000
061000000000
ENDCHAR
STARTCHAR ugrave
ENCODING 249
SWIDTH 553 0
DWIDTH 11 0
BBX 11 15 0 0
BITMAP
0000006E6000
000000BF7000
0000006F7000
0000000AC000
000000002000
008EB0001DB0
005FF100AF90
006FC003FF20
00CF600CFA00
03FE106FF300
0AF902EFC000
2FF21C9F7000
6FB1B98F5000
7FEEA0AFDC00
2DE8004ED500
ENDCHAR
STARTCHAR uacute
ENCODING 250
SWIDTH 553 0
DWIDTH 11 0
BBX 11 16 0 0
BITMAP
000000004910
00000000CF50
00000004FE10
0000002EE300
000000BA2000
000000000000
008EB0001DB0
005FF1009FA0
006FD002FF30
00CF800AFC00
03FF203FF500
0AFB00CFE000
2FF508CF9000
6FD05C7F5000
7FB5B1AF7400
2DE8104EE700
ENDCHAR
STARTCHAR ucircumflex
ENCODING 251
SWIDTH 553 0
DWIDTH 11 0
BBX 12 16 0 0
BITMAP
000000000200
000000009F40
0000001BFF80
000005DD3FD0
00006E8108E3
000000000000
008EB0001DB0
005FF1009FA0
006FD002FF30
00CF800AFC00
03FF203FF500
0AFB00CFE000
2FF508CF9000
6FD05C7F5000
7FB5B1AF7400
2DE8104EE700
ENDCHAR
STARTCHAR udieresis
ENCODING 252
SWIDTH 553 0
DWIDTH 11 0
BBX 12 15 0 0
BITMAP
00002DE408EB
00006FF70DFE
00001BB106D6
000000000000
000000000000
008EB0001DB0
005FF1009FA0
006FD002FF30
00CF800AFC00
03FF203FF500
0AFB00CFE000
2FF508CF9000
6FD05C7F5000
7FB5B1AF7400
2DE8104EE700
ENDCHAR
STARTCHAR yacute
ENCODING 253
SWIDTH 549 0
DWIDTH 11 0
BBX 11 22 0 -6
BITMAP
00000000A500
00000005FD00
0000000BF800
0000008F9000
000004D60000
000000000000
007EC1001CC0
004FF2007FC0
004FE001EF70
00AF9008FF20
02FF401EFC00
09FD009FF700
1EF605DEF200
5FE13D5FB000
6FC4D38F6000
1CEA20EE1000
000005F80000
00000DE10000
00008F600000
0007FA000000
03AFB1000000
06B700000000
ENDCHAR
STARTCHAR thorn
ENCODING 254
SWIDTH 552 0
DWIDTH 11 0
BBX 13 22 -2 -5
BITMAP
00000006200000
0000003FA00000
0000006F900000
000000AF600000
000000EF100000
000004FC000000
000009F6000000
00000EF39ED500
00004FCD84FE10
00008FF700DF30
0000DFB000FF40
0003FF2003FF20
0008FA0008FB00
000CF5001EF400
002FF301BF8000
007FFA5CF80000
00CF7CEB400000
03FE0000000000
09F80000000000
1EF20000000000
7FB00000000000
8E300000000000
ENDCHAR
STARTCHAR ydieresis
ENCODING 255
SWIDTH 549 0
DWIDTH 11 0
BBX 12 21 0 -6
BITMAP
00008EB02DE4
0000DFE06FF7
00006D601CB1
000000000000
000000000000
007EC1001CC0
004FF2007FC0
004FE001EF70
00AF9008FF20
02FF401EFC00
09FD009FF700
1EF605DEF200
5FE13D5FB000
6FC4D38F6000
1CEA20EE1000
000005F80000
00000DE10000
00008F600000
0007FA000000
03AFB1000000
06B700000000
ENDCHAR
STARTCHAR Amacron
ENCODING 256
SWIDTH 615 0
DWIDTH 12 0
BBX 17 18 -2 0
BITMAP
0000000002CFFFFF70
000000000022222200
000000000000000000
000000000004BED000
00000000009EBFC000
000000001BD29F6000
00000000BD11FF1000
00000008F307FA0000
0000004F700DF40000
000000DC004FE00000
000019FDDEFFFF5000
0005EFDCCCFFC81000
0001BE1002FF100000
0004F80006FC000000
000CE10009F9000000
008F70000BF7000000
18FC000009F9420000
7EA1000003DEA10000
ENDCHAR
STARTCHAR amacron
ENCODING 257
SWIDTH 543 0
DWIDTH 11 0
BBX 11 14 0 -1
BITMAP
0000AEFFFFB0
000022222200
000000000000
00005CEB5E90
0009FA3AFF80
009F9006FF10
04FE100AF900
0BF7001FF300
1FF2008FC000
4FE002EF7000
4FD00BEF4000
1EE3AB9FB810
05DE915FFB00
000000034000
ENDCHAR
STARTCHAR Abreve
ENCODING 258
SWIDTH 615 0
DWIDTH 12 0
BBX 17 20 -2 0
BITMAP
000000000005300040
00000000002F7005B0
00000000003FC14D30
000000000008FFC400
000000000000110000
000000000004BED000
00000000009EBFC000
000000001BD29F6000
00000000BD11FF1000
00000008F307FA0000
0000004F700DF40000
000001DC004FE00000
000019FDDEFFFF5000
0005FFDCCCFFC81000
0001BE1002FE000000
0004F80006FB000000
000DE10009F8000000
008F70000BF7000000
18FC000009FDC50000
7EA1000003DE900000
ENDCHAR
STARTCHAR abreve
ENCODING 259
SWIDTH 543 0
DWIDTH 11 0
BBX 12 16 0 -1
BITMAP
000009A000B1
00000EE22AA0
000006FFE800
000000120000
000000000000
00005CEB5E90
0009FA3AFF80
009F9006FF10
04FE100AF900
0BF7001FF300
1FF2008FC000
4FE002EF7000
4FD00BEF4000
1EE3AB9FB810
05DE915FFB00
000000034000
ENDCHAR
STARTCHAR Aogonek
ENCODING 260
SWIDTH 615 0
DWIDTH 12 0
BBX 15 20 -2 -5
BITMAP
000000000004BED0
00000000009EBFC0
000000001BD29F60
00000000BD11FF10
00000008F307FA00
0000004F700DF400
000001DC004FE000
000019FDDEFFFF50
0005FFDCCCFFC810
0001BE1002FE0000
0004F80006FB0000
000DE10009F80000
008F70000BF70000
18FC00000AFDC500
7EA1000003EE8000
0000000007E30000
000000006F500000
00000000EF220000
00000000CFE40000
0000000002000000
ENDCHAR
STARTCHAR aogonek
ENCODING 261
SWIDTH 541 0
DWIDTH 11 0
BBX 11 15 0 -5
BITMAP
00005CEA5E90
000AF93AFF80
009F9006FE10
04FD000BF900
0CF7002FF200
2FF2008FB000
4FE002EF7000
4FD00BEF4000
1EE3AB9FB820
05DE913EFA00
0000005E6000
000004F80000
00000CF42000
00000AFE6000
000000200000
ENDCHAR
STARTCHAR Cacute
ENCODING 262
SWIDTH 533 0
DWIDTH 11 0
BBX 13 20 1 0
BITMAP
00000000002810
0000000000AF70
0000000005FD20
000000002D9100
00000000000000
0000029EEB2000
00007FD63BC000
0008FC1009F100
006FE2002EF100
02EF4001CFB000
0BFB000DFF3000
2FF4000AD40000
8FD00000000000
BF900000000000
EF600000000000
FF400000000000
FF500000000000
CF80002A000000
4FE437EE000000
04CEEC81000000
ENDCHAR
STARTCHAR cacute
ENCODING 263
SWIDTH 468 0
DWIDTH 9 0
BBX 11 16 0 0
BITMAP
000000001A40
000000006FB0
00000001DF60
0000000AF800
0000006C5000
000000000000
00005CED6000
001BF93BF100
00BFA00CF200
06FD106FD000
0DF800AF5000
2FF200010000
4FE000000000
3FE000260000
0CF736E60000
02AEEB500000
ENDCHAR
STARTCHAR Ccircumflex
ENCODING 264
SWIDTH 533 0
DWIDTH 11 0
BBX 13 20 1 0
BITMAP
00000000016000
000000002CF700
00000017EBFE10
000000AD607E70
00000000000000
0000029EEB2000
00007FD63BC000
0008FC1009F100
006FE2002EF100
02EF4001CFB000
0BFB000DFF3000
2FF4000AD40000
8FD00000000000
BF900000000000
EF600000000000
FF400000000000
FF500000000000
CF80002A000000
4FE437EE000000
04CEEC81000000
ENDCHAR
STARTCHAR ccircumflex
ENCODING 265
SWIDTH 468 0
DWIDTH 9 0
BBX 11 16 0 0
BITMAP
000000002000
00000004EA00
0000006FFE00
00002AF7AF40
0001EB303E80
000000000000
00005CED6000
001BF93BF100
00BFA00CF200
06FD106FD000
0DF800AF5000
2FF200010000
4FE000000000
3FE000260000
0CF736E60000
02AEEB500000
ENDCHAR
STARTCHAR Cdotaccent
ENCODING 266
SWIDTH 533 0
DWIDTH 11 0
BBX 12 19 1 0
BITMAP
00000003DE30
00000007FF60
00000002CA00
000000000000
0000029EEB20
00007FD63BC0
0008FC1009F1
006FE2002EF1
02EF4001CFB0
0BFB000DFF30
2FF4000AD400
8FD000000000
BF9000000000
EF6000000000
FF4000000000
FF5000000000
CF80002A0000
4FE437EE0000
04CEEC810000
ENDCHAR
STARTCHAR cdotaccent
ENCODING 267
SWIDTH 468 0
DWIDTH 9 0
BBX 10 15 0 0
BITMAP
0000005EC1
000000BFF2
0000004D80
0000000000
0000000000
00005CED60
001BF93BF1
00BFA00CF2
06FD106FD0
0DF800AF50
2FF2000100
4FE0000000
3FE0002600
0CF736E600
02AEEB5000
ENDCHAR
STARTCHAR Ccaron
ENCODING 268
SWIDTH 533 0
DWIDTH 11 0
BBX 14 19 1 0
BITMAP
0000004DB102C2
0000000AFA9FC1
00000002FFA400
00000000210000
0000029EEB2000
00007FD63BC000
0008FC1009F100
006FE2002EF100
02EF4001CFB000
0BFB000DFF3000
2FF4000AD40000
8FD00000000000
BF900000000000
EF600000000000
FF400000000000
FF500000000000
CF80002A000000
4FE437EE000000
04CEEC81000000
ENDCHAR
STARTCHAR ccaron
ENCODING 269
SWIDTH 468 0
DWIDTH 9 0
BBX 12 15 0 0
BITMAP
000007B2004C
000004FA08FA
000000EDDD60
0000009C6000
000000000000
00005CED6000
001BF93BF100
00BFA00CF200
06FD106FD000
0DF800AF5000
2FF200010000
4FE000000000
3FE000260000
0CF736E60000
02AEEB500000
ENDCHAR
STARTCHAR Dcaron
ENCODING 270
SWIDTH 630 0
DWIDTH 13 0
BBX 13 19 1 0
BITMAP
000004DB102C30
000000AFA8FC10
0000002FFA4000
00000002100000
038CEFED930000
0DFD7324BF8000
037131000BF500
000AFC0005FB00
003FF50003FE00
00BFB00004FE00
02FF400007FC00
08FC00000CF800
0EF600004FF200
4FF10000DF8000
9FA0000AFD1000
CF60009FE20000
FF201AFD200000
DF36EF91000000
3CED9300000000
ENDCHAR
STARTCHAR dcaron
ENCODING 271
SWIDTH 557 0
DWIDTH 11 0
BBX 17 17 0 0
BITMAP
000000000005503710
00000000003FD0DF50
0000000000AF70BF30
0000000001FF20CC00
0000000006FB06E300
000000000BF6072000
000000001FF1000000
00003BEC8FB0000000
0006FC37FF70000000
005FC002FF20000000
02EF2006FD00000000
08F9000BF800000000
0EF4003FF400000000
1FF100BFF000000000
2FF006FFC000000000
0EF56E6FC340000000
04DEB30AFC30000000
ENDCHAR
STARTCHAR Dcroat
ENCODING 272
SWIDTH 630 0
DWIDTH 13 0
BBX 13 15 0 0
BITMAP
0039CEFEC82000
01FFD6325CF600
0047120001DF30
0000BFA0007F90
0005FF30005FC0
000CFA00007FB0
2DFFFFFF109F90
4AFFFAA501EF50
01FF400006FE10
06FD00001EF600
0BF80000CFB000
0EF4000AFC1000
2FF002BFC10000
1FD37EF8000000
04DED820000000
ENDCHAR
STARTCHAR dcroat
ENCODING 273
SWIDTH 557 0
DWIDTH 11 0
BBX 14 17 0 0
BITMAP
00000000000550
00000000003FD0
0000000011AF80
0000004EFFFFF4
0000002449FB20
000000000BF500
000000001FF100
00003BEC8FB000
0006FC37FF6000
005FC002FF2000
02EF2006FC0000
08F9000BF80000
0EF4003FF40000
1FF100BFF10000
2FF006FFC00000
0EF56E6FC34000
04DEB30AFC3000
ENDCHAR
STARTCHAR Emacron
ENCODING 274
SWIDTH 509 0
DWIDTH 10 0
BBX 13 18 0 0
BITMAP
000005EFFFFE30
00000122222100
00000000000000
0000029DFD8100
00006FF833E800
0006FE4001EA00
002FF6001BF700
007FC003DFD100
00AF7005FC2000
009F7000100000
002ED793000000
0019FFE6000000
01CFE600000000
0AFE2000000000
1FF60001300000
2FF2002DA00000
0CF736EE300000
02AEFD92000000
ENDCHAR
STARTCHAR emacron
ENCODING 275
SWIDTH 471 0
DWIDTH 9 0
BBX 11 13 0 0
BITMAP
0007EFFFFD10
000122222100
000000000000
00005CFD5000
0009F83EE000
008F900DF100
04FE105FE000
0BF905EF5000
0FFABFD40000
3FF873000000
2FF100050000
0BF835CD0000
019EFD910000
ENDCHAR
STARTCHAR Ebreve
ENCODING 276
SWIDTH 509 0
DWIDTH 10 0
BBX 13 20 0 0
BITMAP
00000006000130
0000007F300970
0000007F817C10
0000001CFFA100
00000000210000
0000029DFD8100
00006FF833E800
0006FE4001EA00
002FF6001BF700
007FC003DFD100
00AF7005FC2000
009F7000100000
002ED793000000
0019FFE6000000
01CFE600000000
0AFE2000000000
1FF60001300000
2FF2002DA00000
0CF736EE300000
02AEFD92000000
ENDCHAR
STARTCHAR ebreve
ENCODING 277
SWIDTH 471 0
DWIDTH 9 0
BBX 11 15 0 0
BITMAP
00007D000940
0000BF418C10
00004EFF9100
000000210000
000000000000
00005CFD5000
0009F83EE000
008F900DF100
04FE105FE000
0BF905EF5000
0FFABFD40000
3FF873000000
2FF100050000
0BF835CD0000
019EFD910000
ENDCHAR
STARTCHAR Edotaccent
ENCODING 278
SWIDTH 509 0
DWIDTH 10 0
BBX 12 19 0 0
BITMAP
0000000AF900
0000001FFC00
00000008C400
000000000000
0000029DFD81
00006FF833E8
0006FE4001EA
002FF6001BF7
007FC003DFD1
00AF7005FC20
009F70001000
002ED7930000
0019FFE60000
01CFE6000000
0AFE20000000
1FF600013000
2FF2002DA000
0CF736EE3000
02AEFD920000
ENDCHAR
STARTCHAR edotaccent
ENCODING 279
SWIDTH 471 0
DWIDTH 9 0
BBX 10 15 0 0
BITMAP
000003DE30
000007FF60
000002CA00
0000000000
0000000000
00005CFD50
0009F83EE0
008F900DF1
04FE105FE0
0BF905EF50
0FFABFD400
3FF8730000
2FF1000500
0BF835CD00
019EFD9100
ENDCHAR
STARTCHAR Eogonek
ENCODING 280
SWIDTH 509 0
DWIDTH 10 0
BBX 12 20 0 -5
BITMAP
0000029DFD81
00006FF833E8
0006FE4001EA
002FF6001BF7
007FC003DFD1
00AF7005FC20
009F70001000
002ED7930000
0019FFE60000
01CFE6000000
0AFE20000000
1FF600013000
2FF2002DA000
0CF736EE4000
019DFF920000
0005E5000000
004F70000000
00CF32000000
00BFE5000000
000200000000
ENDCHAR
STARTCHAR eogonek
ENCODING 281
SWIDTH 471 0
DWIDTH 9 0
BBX 10 15 0 -5
BITMAP
00005CFD40
0009F83EE0
009FA00DF1
03FE205FE0
0BF905EF60
0FFABFD500
2FF9740000
1FF1000500
0BF835CD00
019EFFB200
0003D80000
002EB00000
009F720000
007FF80000
0002100000
ENDCHAR
STARTCHAR Ecaron
ENCODING 282
SWIDTH 509 0
DWIDTH 10 0
BBX 13 19 0 0
BITMAP
000000BD500890
0000004FE6DE50
0000000BFC7100
00000001300000
0000029DFD8100
00006FF833E800
0006FE4001EA00
002FF6001BF700
007FC003DFD100
00AF7005FC2000
009F7000100000
002ED793000000
0019FFE6000000
01CFE600000000
0AFE2000000000
1FF60001300000
2FF2002DA00000
0CF736EE300000
02AEFD92000000
ENDCHAR
STARTCHAR ecaron
ENCODING 283
SWIDTH 471 0
DWIDTH 9 0
BBX 12 15 0 0
BITMAP
00004C5002C2
00001FD05ED0
00000BFBE810
000006E81000
000000000000
00005CFD5000
0009F83EE000
008F900DF100
04FE105FE000
0BF905EF5000
0FFABFD40000
3FF873000000
2FF100050000
0BF835CD0000
019EFD910000
ENDCHAR
STARTCHAR Gcircumflex
ENCODING 284
SWIDTH 598 0
DWIDTH 12 0
BBX 13 20 1 0
BITMAP
00000000016000
000000002DF600
00000017EBFD10
000000AD608E60
00000000000000
0000029DEB2000
00006FE63BC000
0007FD2008F200
005FE2001DF200
02EF6000AFD000
0AFD000BFF5000
2FF5000BF70000
7FE00000100000
BFA00044235000
DF7007FFFFA000
FF40018FFB2000
EF40004F500000
BF7000AD100000
4FE539E3000000
04CFD920000000
ENDCHAR
STARTCHAR gcircumflex
ENCODING 285
SWIDTH 526 0
DWIDTH 11 0
BBX 11 22 0 -6
BITMAP
000000001100
00000002DC00
0000005EFF10
000019F88F60
0000DC402DA0
000000000000
00005CEC2620
0009F939EF90
009FA002FF30
04FE1006FD00
0BF9000CF800
1FF4004FF300
3FF100CFD000
3FF008FF9000
0EF48EDF4000
04DEA2FD0000
000006F70000
00001DE10000
00008F600000
0007FA000000
05CFA1000000
038400000000
ENDCHAR
STARTCHAR Gbreve
ENCODING 286
SWIDTH 598 0
DWIDTH 12 0
BBX 13 20 1 0
BITMAP
00000003400040
0000000EB002E0
0000000EE23D60
00000006FFD600
00000000120000
0000029DEB2000
00006FE63BC000
0007FD2008F200
005FE2001DF200
02EF6000AFD000
0AFD000BFF5000
2FF5000BF70000
7FE00000100000
BFA00044235000
DF7007FFFFA000
FF40018FFB2000
EF40004F500000
BF7000AD100000
4FE539E3000000
04CFD920000000
ENDCHAR
STARTCHAR gbreve
ENCODING 287
SWIDTH 526 0
DWIDTH 11 0
BBX 12 21 0 -6
BITMAP
000008C000A2
00000CF319B0
000005EFE910
000000020000
000000000000
00005CEC2620
0009F939EF90
009FA002FF30
04FE1006FD00
0BF9000CF800
1FF4004FF300
3FF100CFD000
3FF008FF9000
0EF48EDF4000
04DEA2FD0000
000006F70000
00001DE10000
00008F600000
0007FA000000
05CFA1000000
038400000000
ENDCHAR
STARTCHAR Gdotaccent
ENCODING 288
SWIDTH 598 0
DWIDTH 12 0
BBX 12 19 1 0
BITMAP
00000003EE30
00000008FF50
00000002CA00
000000000000
0000029DEB20
00006FE63BC0
0007FD2008F2
005FE2001DF2
02EF6000AFD0
0AFD000BFF50
2FF5000BF700
7FE000001000
BFA000442350
DF7007FFFFA0
FF40018FFB20
EF40004F5000
BF7000AD1000
4FE539E30000
04CFD9200000
ENDCHAR
STARTCHAR gdotaccent
ENCODING 289
SWIDTH 526 0
DWIDTH 11 0
BBX 11 21 0 -6
BITMAP
0000004ED200
0000009FF400
0000003C9000
000000000000
000000000000
00005CEC2620
0009F939EF90
009FA002FF30
04FE1006FD00
0BF9000CF800
1FF4004FF300
3FF100CFD000
3FF008FF9000
0EF48EDF4000
04DEA2FD0000
000006F70000
00001DE10000
00008F600000
0007FA000000
05CFA1000000
038400000000
ENDCHAR
STARTCHAR Gcommaaccent
ENCODING 290
SWIDTH 598 0
DWIDTH 12 0
BBX 12 20 1 -5
BITMAP
0000029DEB20
00006FE63BC0
0007FD2008F2
005FE2001DF2
02EF6000AFD0
0AFD000BFF50
2FF5000BF700
7FE000001000
BFA000442350
DF7007FFFFA0
FF40018FFB20
EF40004F5000
BF7000AD1000
4FE539E30000
04CFD9200000
002000000000
0AF900000000
06F900000000
09E200000000
4C3000000000
ENDCHAR
STARTCHAR gcommaaccent
ENCODING 291
SWIDTH 526 0
DWIDTH 11 0
BBX 11 21 0 -6
BITMAP
00000002A700
0000001DB000
0000006FD000
000000185000
000000000000
00005CEC2620
0009F939EF90
009FA002FF30
04FE1006FD00
0BF9000CF800
1FF4004FF300
3FF100CFD000
3FF008FF9000
0EF48EDF4000
04DEA2FD0000
000006F70000
00001DE10000
00008F600000
0007FA000000
05CFA1000000
038400000000
ENDCHAR
STARTCHAR Hcircumflex
ENCODING 292
SWIDTH 668 0
DWIDTH 13 0
BBX 15 20 -1 0
BITMAP
0000000000160000
0000000003DF6000
000000017FBFC000
0000000BD508E600
0000000000000000
001AEFD400000CB0
000989F900003FF0
00000AF800007FB0
00000DF50000BF60
00002FF10002FE10
00006FB00007F900
0000BFECDEEFFE30
001DFE43348FFB00
0009FA00008F8000
000CF40000DF3000
003FC00003FD0000
00BF500008F80000
04FC00000CF40000
2EE200000DF55000
8D30000007ED5000
ENDCHAR
STARTCHAR hcircumflex
ENCODING 293
SWIDTH 555 0
DWIDTH 11 0
BBX 11 20 0 0
BITMAP
000000110000
000002DD0000
00004EFF2000
0019F97F6000
00CC401DB000
00007D200000
0000CF600000
0000EF400000
0003FE000000
0007FB000000
000BF61AEA00
001FF1CEFF40
006FA9B1EF30
00BF9C15FE00
02FFD10CF800
08FF304FF200
0EF6009FA000
6FD000DF6000
DF6000DF6500
AC00005EE600
ENDCHAR
STARTCHAR Hbar
ENCODING 294
SWIDTH 668 0
DWIDTH 13 0
BBX 17 15 -1 0
BITMAP
001AEFD400000DB000
000989F900003FF000
00000BF800007FB000
005BDFFEDEEEFFFE30
00257FE22225FD2100
00008FB00007F80000
0004DFDCDEEFFE3000
001EFE43337FD50000
0008FA00009F600000
000EF40000EF200000
005FC00004FC000000
00CF500009F8000000
06FC00000CF4000000
3EE200000DF5500000
8D30000006ED500000
ENDCHAR
STARTCHAR hbar
ENCODING 295
SWIDTH 555 0
DWIDTH 11 0
BBX 11 17 0 0
BITMAP
000016100000
00005FA00000
00007FA00000
006EFFFFD200
0013FF421000
0004FD000000
0007F8000000
000CF41AEA00
001FE1CEFF40
006F99B1EF30
00BF9B05FE00
02FFC10CF800
07FF304FF200
0DF6009FA000
5FD000DF6000
CF6000DF6500
AC00005EE700
ENDCHAR
STARTCHAR Itilde
ENCODING 296
SWIDTH 327 0
DWIDTH 7 0
BBX 12 19 -1 0
BITMAP
00002AE80092
0001DEFF53C0
0004B04EFB20
000010001000
0007DFD50000
000696FD0000
000005FD0000
000008FB0000
00000CF70000
00001FF30000
00005FE00000
0000AF900000
0001EF400000
0005FD000000
000CF7000000
004FE1000000
00CF60000000
08FA00000000
1E9000000000
ENDCHAR
STARTCHAR itilde
ENCODING 297
SWIDTH 286 0
DWIDTH 6 0
BBX 9 15 0 0
BITMAP
006DD20290
06FEFC1A50
0C40AFE600
0100010000
0000000000
009ED00000
006FE00000
006FA00000
00BF300000
03FC000000
09F5000000
1ED0000000
5FA0000000
6FFE200000
1CE8000000
ENDCHAR
STARTCHAR Imacron
ENCODING 298
SWIDTH 327 0
DWIDTH 7 0
BBX 11 18 -1 0
BITMAP
0002CFFFFF70
000022222200
000000000000
0007DFD50000
000696FD0000
000005FD0000
000008FB0000
00000CF70000
00001FF30000
00005FE00000
0000AF900000
0001EF400000
0005FD000000
000CF7000000
004FE1000000
00CF60000000
08FA00000000
1E9000000000
ENDCHAR
STARTCHAR imacron
ENCODING 299
SWIDTH 286 0
DWIDTH 6 0
BBX 8 13 0 0
BITMAP
0BEFFFFA
02222220
00000000
009ED000
006FE000
006FA000
00BF3000
03FC0000
09F50000
1ED00000
5FA00000
6FFE2000
1CE80000
ENDCHAR
STARTCHAR Ibreve
ENCODING 300
SWIDTH 327 0
DWIDTH 7 0
BBX 11 20 -1 0
BITMAP
000005200040
00003F7005B0
00003FC15D30
000009FFC300
000000110000
0007DFD50000
000696FD0000
000005FD0000
000008FB0000
00000CF70000
00001FF30000
00005FE00000
0000AF900000
0001EF400000
0005FD000000
000CF7000000
004FE1000000
00CF60000000
08FA00000000
1E9000000000
ENDCHAR
STARTCHAR ibreve
ENCODING 301
SWIDTH 286 0
DWIDTH 6 0
BBX 9 15 0 0
BITMAP
007C000A30
00CF319C00
004EFE9100
0000200000
0000000000
009ED00000
006FE00000
006FA00000
00BF300000
03FC000000
09F5000000
1ED0000000
5FA0000000
6FFE200000
1CE8000000
ENDCHAR
STARTCHAR Iogonek
ENCODING 302
SWIDTH 327 0
DWIDTH 7 0
BBX 10 20 -3 -5
BITMAP
000007DFD5
00000696FD
00000005FD
00000009FB
0000000CF7
0000001FF3
0000005FE0
000000AF90
000001FF40
000006FD00
00000CF600
00005FD000
0001DF5000
000AF90000
004F800000
05E5000000
3F90000000
AF52000000
9FE7000000
0210000000
ENDCHAR
STARTCHAR iogonek
ENCODING 303
SWIDTH 297 0
DWIDTH 6 0
BBX 8 20 -1 -5
BITMAP
00001CE5
00005FF8
00000BB2
00000000
00000000
0006EE20
0003FF20
0003FD00
0009F700
001EE100
006F8000
00CF2000
02FD0000
03FFB400
00AFB100
02CA0000
1DD00000
6FA20000
4FFA0000
01100000
ENDCHAR
STARTCHAR Idotaccent
ENCODING 304
SWIDTH 327 0
DWIDTH 7 0
BBX 9 19 -1 0
BITMAP
000006EC10
00000CFF10
000004D700
0000000000
0007DFD500
000696FD00
000005FD00
000008FB00
00000CF700
00001FF300
00005FE000
0000AF9000
0001EF4000
0005FD0000
000CF70000
004FE10000
00CF600000
08FA000000
1E90000000
ENDCHAR
STARTCHAR dotlessi
ENCODING 305
SWIDTH 286 0
DWIDTH 6 0
BBX 5 10 0 0
BITMAP
009ED0
006FE0
006FA0
00BF30
03FC00
09F500
1ED000
5FA000
6FFE20
1CE800
ENDCHAR
STARTCHAR IJ
ENCODING 306
SWIDTH 720 0
DWIDTH 14 0
BBX 16 20 -1 -5
BITMAP
0007DFD5005AEFC6
000696FD1CFE76FF
000005FD4FD206FE
000008FB031009FC
00000CF700000DF8
00001FF300003FF4
00005FE000008FE0
0000AF900000DF90
0001EF400003FF40
0005FD000009FD00
000CF700001FF700
004FE100007FE100
00CF600000EF8000
08FA000007FE1000
1E9000001EF60000
00000000AFB00000
00000006FE200000
0000004FE3000000
000007FE30000000
0000AE9100000000
ENDCHAR
STARTCHAR ij
ENCODING 307
SWIDTH 567 0
DWIDTH 11 0
BBX 12 20 0 -5
BITMAP
0003DE301CE5
0008FF505FF8
0002CA001BB2
000000000000
000000000000
009ED003DF60
006FE000DF80
006FA000DF60
00BF3000EF30
03FC0003FE00
09F50007FA00
1ED0000BF600
5FA0001FF100
6FFE207F9000
1CE800DF3000
000006FA0000
00001DE20000
00009F500000
0008F7000000
009D50000000
ENDCHAR
STARTCHAR Jcircumflex
ENCODING 308
SWIDTH 393 0
DWIDTH 8 0
BBX 15 25 -4 -5
BITMAP
0000000000026000
00000000003DF500
0000000018FBFC00
00000000CC509E50
0000000000000000
00000028DFEA1000
000007FFB4DF7000
00000CF700EF6000
0000012002FF3000
0000000006FE0000
000000000BFB0000
000000001FF60000
000000006FF10000
00000000BFB00000
00000002FF500000
00000009FD000000
0000001EF7000000
0000007FE1000000
000001EF70000000
000009FD00000000
00003FF300000000
0001DF7000000000
001BF90000000000
03CF800000000000
4EC4000000000000
ENDCHAR
STARTCHAR jcircumflex
ENCODING 309
SWIDTH 282 0
DWIDTH 6 0
BBX 12 21 -4 -5
BITMAP
000000001930
00000002DF90
0000005EBED0
00002BF80AF3
000017200172
000000000000
000000BEB000
0000009FD000
0000008FB000
000000AF8000
000000DF4000
000003FE0000
000007FA0000
00000CF50000
00003FE00000
0000AF700000
0002FE100000
000AF5000000
005FA0000000
04EB00000000
4E8000000000
ENDCHAR
STARTCHAR Kcommaaccent
ENCODING 310
SWIDTH 616 0
DWIDTH 12 0
BBX 14 20 -1 -5
BITMAP
003BEE800007E6
004C5DF30005FE
00001FF30007FE
00004FF1000DF8
00007FD0007FD1
0000BF9005FD20
0001FF507FB100
0005FF2AF70000
000AFDDE300000
001FF9EF400000
007FE16FE20000
00DF700BFC0000
07FD1003FF7000
4FF400008FF720
BD40000007EEA1
00001100000000
0003FF20000000
0000EF10000000
0002F800000000
000B8000000000
ENDCHAR
STARTCHAR kcommaaccent
ENCODING 311
SWIDTH 497 0
DWIDTH 10 0
BBX 11 22 0 -5
BITMAP
000016100000
00005F900000
00008F900000
0000BF600000
0000EF200000
0003FD000000
0007F8000000
000CF308EA00
001FD005FF10
006F801BFB00
00BF23CFB100
02FEAFB50000
07FFF9000000
0DF7FE100000
5FC0BFB00000
CF503FFDC400
BC0004DE8000
000200000000
02EF30000000
00CF30000000
01EA00000000
0A9000000000
ENDCHAR
STARTCHAR kgreenlandic
ENCODING 312
SWIDTH 497 0
DWIDTH 10 0
BBX 11 10 0 0
BITMAP
009E9006EB00
007FD003FF20
007FA008FE00
00BF608FE400
02FF6DFB2000
07FFFC300000
0DFCFD000000
5FF3AF600000
CF902EF63300
AD1004CEA100
ENDCHAR
STARTCHAR Lacute
ENCODING 313
SWIDTH 517 0
DWIDTH 10 0
BBX 14 20 -1 0
BITMAP
00000000000560
00000000001EF2
00000000009FA0
0000000007D700
00000000000000
00000004CEC300
0000005FC38D00
000002EE206F30
00000BF800BF30
00004FF106FD00
0000AFA07FF600
0002FF44FFA000
0007FD00650000
000CF700000000
003FE100000000
008F9000000000
01EE1000000000
08F61357610000
4FECFFFFFE1000
2EDA86568D3000
ENDCHAR
STARTCHAR lacute
ENCODING 314
SWIDTH 279 0
DWIDTH 6 0
BBX 9 20 0 0
BITMAP
0000000740
0000002FE0
000001CF70
000009C500
0000000000
00009C0000
0000DF1000
0002FE0000
0006FA0000
000BF50000
001FF10000
006FB00000
00BF600000
02FF100000
07FB000000
0CF6000000
2FF1000000
5FC0000000
5FB4300000
0BFB100000
ENDCHAR
STARTCHAR Lcommaaccent
ENCODING 315
SWIDTH 517 0
DWIDTH 10 0
BBX 13 20 -1 -5
BITMAP
00000004CEC300
0000005FC38D00
000002EE206F30
00000BF800BF30
00004FF106FD00
0000AFA07FF600
0002FF44FFA000
0007FD00650000
000CF700000000
003FE100000000
008F9000000000
01EE1000000000
08F61357610000
4FECFFFFFE1000
2EDA86568D3000
00020000000000
009F9000000000
006FA000000000
008E3000000000
04C30000000000
ENDCHAR
STARTCHAR lcommaaccent
ENCODING 316
SWIDTH 279 0
DWIDTH 6 0
BBX 7 22 0 -5
BITMAP
00003600
0000AF50
0000DF40
0001FF20
0004FD00
0008F900
000DF400
002FE000
007F9000
00CF4000
02FE0000
07F90000
0CF50000
2FF10000
5FC00000
4FC55000
0BE90000
01100000
5FE00000
1FE00000
4F700000
C6000000
ENDCHAR
STARTCHAR Lcaron
ENCODING 317
SWIDTH 517 0
DWIDTH 10 0
BBX 17 19 -1 0
BITMAP
00000000000001CD00
00000000000001FF10
00000000000000EC00
00000000000005F400
00000004CEC31D6000
0000005FC38D010000
000002EE206F300000
00000BF800BF300000
00004FF106FD000000
0000AFA07FF6000000
0002FF44FFA0000000
0007FD006500000000
000CF7000000000000
003FE1000000000000
008F90000000000000
01EE10000000000000
08F613576100000000
4FECFFFFFE10000000
2EDA86568D30000000
ENDCHAR
STARTCHAR lcaron
ENCODING 318
SWIDTH 467 0
DWIDTH 9 0
BBX 11 17 0 0
BITMAP
000036000550
0000AF503FE0
0000DF401FD0
0001FF203F70
0004FD00BB00
0008F9027100
000DF4000000
002FE0000000
007F90000000
00CF40000000
02FE00000000
07F900000000
0CF500000000
2FF100000000
5FC000000000
4FC550000000
0BE900000000
ENDCHAR
STARTCHAR Ldot
ENCODING 319
SWIDTH 668 0
DWIDTH 13 0
BBX 15 15 -1 0
BITMAP
00000004CEC30000
0000005FC38D0000
000002EE206F3000
00000BF800BF3000
00004FF106FD0000
0000AFA07FF60000
0002FF44FFA00000
0007FD0065008A30
000CF7000004FF90
003FE1000001EF40
008F900000001100
01EE100000000000
08F6135761000000
4FECFFFFFE100000
2EDA86568D300000
ENDCHAR
STARTCHAR ldot
ENCODING 320
SWIDTH 489 0
DWIDTH 10 0
BBX 10 17 0 0
BITMAP
0000360000
0000AF5000
0000DF4000
0001FF2000
0004FD0000
0008F90000
000DF40000
002FE00000
007F900000
00CF403ED4
02FE008FF8
07F9003DC2
0CF5000000
2FF1000000
5FC0000000
4FC5500000
0BE9000000
ENDCHAR
STARTCHAR Lslash
ENCODING 321
SWIDTH 517 0
DWIDTH 10 0
BBX 13 15 -1 0
BITMAP
00000004CEC300
0000005FC38D00
000002FE206F30
00000BF800AF30
00004FF206FE00
0000BFA06FF700
0002FF44FFB000
0007FD00770000
004DFFE9000000
1CFFD332000000
16AF6000000000
01ED0000000000
08F4368A930000
4FEDFFFFFE1000
2EDA85458D3000
ENDCHAR
STARTCHAR lslash
ENCODING 322
SWIDTH 279 0
DWIDTH 6 0
BBX 9 17 0 0
BITMAP
0004200000
000DD30000
0009FFFFA0
0000DF5000
0002FE0000
0006FA0000
000BF60000
001FF10000
006FB00000
00BF600000
01FF100000
06FB000000
0BF6000000
1FF1000000
5FC0000000
5FC3300000
0BFB100000
ENDCHAR
STARTCHAR Nacute
ENCODING 323
SWIDTH 708 0
DWIDTH 14 0
BBX 16 20 0 0
BITMAP
0000000000000740
0000000000002FE0
000000000001CF80
000000000009C500
0000000000000000
0000019E70007EA0
00000BFF70005FF5
00007FEF40000EF7
0002F8CF30000EF5
000AE1DF40002FE1
002F80DF40006F90
009F20CF6000BF20
01EB00BF8003F900
06F6009FB00AE100
0BF2006FE02F7000
1FC0002FF38D1000
4F90000DF8E60000
7F500007FFE00000
9F300001EF800000
5E0000004D500000
ENDCHAR
STARTCHAR nacute
ENCODING 324
SWIDTH 561 0
DWIDTH 11 0
BBX 11 16 0 0
BITMAP
000000003A10
00000000BF70
00000003FE20
0000001DE400
000000AA2000
000000000000
009E901AEB10
006FD1CEFF60
006FABB1CF50
00AFBC13FF10
01FFD20AFA00
07FF402FF300
0DF7007FC000
5FD000BF7000
CF6000BF6510
AD10004DE800
ENDCHAR
STARTCHAR Ncommaaccent
ENCODING 325
SWIDTH 708 0
DWIDTH 14 0
BBX 16 20 0 -5
BITMAP
0000019E70007EA0
00000BFF70005FF5
00007FEF40000EF7
0002F8CF30000EF5
000AE1DF40002FE1
002F80DF40006F90
009F20CF6000BF20
01EB00BF8003F900
06F6009FB00AE100
0BF2006FE02F7000
1FC0002FF38D1000
4F90000DF8E60000
7F500007FFE00000
9F300001EF800000
5E0000004D500000
0000001000000000
00002EE200000000
00000DF200000000
00001EA000000000
0000A90000000000
ENDCHAR
STARTCHAR ncommaaccent
ENCODING 326
SWIDTH 561 0
DWIDTH 11 0
BBX 11 15 0 -5
BITMAP
009E901AEB10
006FD1CEFF60
006FABB1CF50
00AFBC13FF10
01FFD20AFA00
07FF402FF300
0DF7007FC000
5FD000BF7000
CF6000BF6510
AD10004DE800
000200000000
00CF70000000
008F70000000
00BD10000000
06B200000000
ENDCHAR
STARTCHAR Ncaron
ENCODING 327
SWIDTH 708 0
DWIDTH 14 0
BBX 16 19 0 0
BITMAP
000000000AD60089
0000000003FF6DE5
0000000000AFC610
0000000000030000
0000019E70007EA0
00000BFF70005FF5
00007FEF40000EF7
0002F8CF30000EF5
000AE1DF40002FE1
002F80DF40006F90
009F20CF6000BF20
01EB00BF8003F900
06F6009FB00AE100
0BF2006FE02F7000
1FC0002FF38D1000
4F90000DF8E60000
7F500007FFE00000
9F300001EF800000
5E0000004D500000
ENDCHAR
STARTCHAR ncaron
ENCODING 328
SWIDTH 561 0
DWIDTH 11 0
BBX 12 15 0 0
BITMAP
000006B2004C
000004FA07FA
000000EECE60
0000009D6000
000000000000
009E901AEB10
006FD1CEFF60
006FABB1CF50
00AFBC13FF10
01FFD20AFA00
07FF402FF300
0DF7007FC000
5FD000BF7000
CF6000BF6510
AD10004DE800
ENDCHAR
STARTCHAR Eng
ENCODING 330
SWIDTH 698 0
DWIDTH 14 0
BBX 16 20 0 -5
BITMAP
000002BF4000AE80
00001DFF30008FF3
0000AEFF10002FF4
0005F7FF00002FF3
000CD2FF00003FE0
005F62FF10006FA0
00CE11FF3000AF60
03F900EF5000EE10
08F400CF8003F900
0DE000AFB009F300
3FA0006FF10EB000
7F60001FF66F3000
AF20000AFDCA0000
CF000002EFE20000
7C000000CF500000
00000006FA000000
0000004FB0000000
000004EC10000000
00007FB100000000
000CD60000000000
ENDCHAR
STARTCHAR eng
ENCODING 331
SWIDTH 561 0
DWIDTH 11 0
BBX 11 15 0 -5
BITMAP
009E901AEB10
006FD1CEFF60
006FABB1CF50
00AFBC10DF20
01FFD202FD00
07FF4008F700
0DF7000EF200
5FD0005FB000
CF6000CF4000
AD1005FC0000
00001DF40000
00008F900000
0005FC100000
004ED2000000
02EA10000000
ENDCHAR
STARTCHAR Omacron
ENCODING 332
SWIDTH 655 0
DWIDTH 13 0
BBX 14 18 1 0
BITMAP
0000007EFFFFD1
00000012222210
00000000000000
0000018DFE9100
00005EF736FB00
0005FE4000CF30
003FF60000AF60
00CFA00000BF60
06FF200000EF50
0DF8000003FF20
3FF2000008FC00
7FC000001EF700
AF8000007FE100
BF500001EF6000
BF40000BFB0000
8F60008FC10000
2ED44BFB100000
02BEEB50000000
ENDCHAR
STARTCHAR omacron
ENCODING 333
SWIDTH 514 0
DWIDTH 10 0
BBX 12 13 0 0
BITMAP
00008EFFFFD1
000022222200
000000000000
00007DFD5000
001BFA3DF300
00BFA009F700
05FE100AF800
0CF8000EF600
1FF3004FF200
3FE000BFA000
3FD006FE2000
0DF46FE30000
03BEE9100000
ENDCHAR
STARTCHAR Obreve
ENCODING 334
SWIDTH 655 0
DWIDTH 13 0
BBX 14 20 1 0
BITMAP
00000001600032
0000000AF000C4
0000000AF61AA0
00000003DFE800
00000000020000
0000018DFE9100
00005EF736FB00
0005FE4000CF30
003FF60000AF60
00CFA00000BF60
06FF200000EF50
0DF8000003FF20
3FF2000008FC00
7FC000001EF700
AF8000007FE100
BF500001EF6000
BF40000BFB0000
8F60008FC10000
2ED44BFB100000
02BEEB50000000
ENDCHAR
STARTCHAR obreve
ENCODING 335
SWIDTH 514 0
DWIDTH 10 0
BBX 12 15 0 0
BITMAP
000007C000A3
00000CF419C0
000004EFE910
000000020000
000000000000
00007DFD5000
001BFA3DF300
00BFA009F700
05FE100AF800
0CF8000EF600
1FF3004FF200
3FE000BFA000
3FD006FE2000
0DF46FE30000
03BEE9100000
ENDCHAR
STARTCHAR Ohungarumlaut
ENCODING 336
SWIDTH 655 0
DWIDTH 13 0
BBX 14 20 1 0
BITMAP
00000000120020
000000007F10E9
00000000CE05F7
00000009E33EA0
00000016104400
0000018DFE9100
00005EF736FB00
0005FE4000CF30
003FF60000AF60
00CFA00000BF60
06FF200000EF50
0DF8000003FF20
3FF2000008FC00
7FC000001EF700
AF8000007FE100
BF500001EF6000
BF40000BFB0000
8F60008FC10000
2ED44BFB100000
02BEEB50000000
ENDCHAR
STARTCHAR ohungarumlaut
ENCODING 337
SWIDTH 514 0
DWIDTH 10 0
BBX 12 16 0 0
BITMAP
000000490094
000000BF04F8
000004F90CF2
00002EB18F50
0000C905C400
000000000000
00007DFD5000
001BFA3DF300
00BFA009F700
05FE100AF800
0CF8000EF600
1FF3004FF200
3FE000BFA000
3FD006FE2000
0DF46FE30000
03BEE9100000
ENDCHAR
STARTCHAR OE
ENCODING 338
SWIDTH 900 0
DWIDTH 18 0
BBX 19 15 2 0
BITMAP
0000028DFE926BEFD700
00005EE737FFFE735F50
0006FE3000DFD2003F70
004FF50005FF3002DF40
00DF90000BFA004EFB00
07FE10000DF5007FB100
0DF800000BF400010000
4FF1000004FC89100000
8FB0000001BFFD400000
BF7000002DFD40000000
CF400000CFC100000000
CF300008FF3000320000
9F50006FFE0003E70000
2ED44AFDEF638FD20000
03BEEC603BEEC7100000
ENDCHAR
STARTCHAR oe
ENCODING 339
SWIDTH 777 0
DWIDTH 16 0
BBX 15 10 1 0
BITMAP
0003AEE9119EEA10
006FE47FADD48F60
04FF303FFF206F90
1DF7004FF900CF60
5FE1007FF20AFD10
AF9000CFE7DFA100
CF6004FFC8620000
BF501DFF80003200
7F93CFEFD338F500
08EFC717DFEB5000
ENDCHAR
STARTCHAR Racute
ENCODING 340
SWIDTH 623 0
DWIDTH 12 0
BBX 14 21 -1 -1
BITMAP
00000000000740
00000000003FD0
0000000001CF70
000000000AC500
00000000000000
000049CEFEB500
0008FFB5337F90
0006C473000AF4
000007FA0009F7
00000EF5000DF6
00005FE1006FE1
0000BF9006FF60
0001FF55CFE500
0006FFFFE81000
000CF78F800000
003FF10DF40000
00AF9007FC0000
03FE1001EF7000
1CF500006FF530
6E50000008FFA0
00000000001200
ENDCHAR
STARTCHAR racute
ENCODING 341
SWIDTH 407 0
DWIDTH 8 0
BBX 10 16 0 0
BITMAP
0000000590
0000000DF4
0000005FD1
000002ED30
00000C9100
0000000000
00CE605DB0
00AFA4FFF0
009F8E8980
00CFA70000
01FFB00000
06FE200000
0CF8000000
2FF2000000
8FA0000000
6E30000000
ENDCHAR
STARTCHAR Rcommaaccent
ENCODING 342
SWIDTH 623 0
DWIDTH 12 0
BBX 14 20 -1 -5
BITMAP
000049CEFEB500
0008FFB5337F90
0006C473000AF4
000007FA0009F7
00000EF5000DF6
00005FE1006FE1
0000BF9006FF60
0001FF55CFE500
0006FFFFE81000
000CF78F800000
003FF10DF40000
00AF9007FC0000
03FE1001EF7000
1CF500006FF530
6E50000008FFA0
00001000001200
0006FC00000000
0003FC00000000
0006F500000000
002D5000000000
ENDCHAR
STARTCHAR rcommaaccent
ENCODING 343
SWIDTH 407 0
DWIDTH 8 0
BBX 11 15 -2 -5
BITMAP
0000CE605DB0
0000AFA4FFF0
00009F8E7980
0000CFA70000
0001FFB00000
0006FE200000
000CF8000000
003FF2000000
008FA0000000
006E30000000
001100000000
06FC00000000
03FD00000000
05F500000000
1D5000000000
ENDCHAR
STARTCHAR Rcaron
ENCODING 344
SWIDTH 623 0
DWIDTH 12 0
BBX 14 20 -1 -1
BITMAP
0000000BD50089
00000004FE6DF5
00000000AFC710
00000000130000
000049CEFEB500
0008FFB5337F90
0006C473000AF4
000007FA0009F7
00000EF5000DF6
00005FE1006FE1
0000BF9006FF60
0001FF55CFE500
0006FFFFE81000
000CF78F800000
003FF10DF40000
00AF9007FC0000
03FE1001EF7000
1CF500006FF530
6E50000008FFA0
00000000001200
ENDCHAR
STARTCHAR rcaron
ENCODING 345
SWIDTH 407 0
DWIDTH 8 0
BBX 11 15 0 0
BITMAP
00009B1006A0
00007F71AF70
00002FCEC400
00000CB40000
000000000000
00CE605DB000
00AFA4FFF000
009F8E898000
00CFA7000000
01FFB0000000
06FE20000000
0CF800000000
2FF200000000
8FA000000000
6E3000000000
ENDCHAR
STARTCHAR Sacute
ENCODING 346
SWIDTH 474 0
DWIDTH 9 0
BBX 12 20 0 0
BITMAP
000000000074
0000000003FD
000000001CF7
00000000AC40
000000000000
000018DFD600
0002DF626F60
000CF5000DC0
005FC0001FE0
009F90008FC0
00BF9007FF50
00AFD00BF800
006FF7001000
000DFE200000
0003EFB00000
01005FF20000
2E600CF40000
7F700AF10000
5FD35E600000
07DFC5000000
ENDCHAR
STARTCHAR sacute
ENCODING 347
SWIDTH 423 0
DWIDTH 8 0
BBX 10 16 0 0
BITMAP
00000004A1
0000000BF6
0000003FE2
000001DE40
00000BA200
0000000000
0006CED700
008F73CF50
00EF108F50
00FF503600
00AFE20000
002EFB0000
0105FF3000
7F00DF4000
AF85EC1000
2BEE910000
ENDCHAR
STARTCHAR Scircumflex
ENCODING 348
SWIDTH 474 0
DWIDTH 9 0
BBX 12 20 0 0
BITMAP
000000000530
000000007FD0
0000003CECF6
000003EA22DD
000000000000
000018DFD600
0002DF626F60
000CF5000DC0
005FC0001FE0
009F90008FC0
00BF9007FF50
00AFD00BF800
006FF7001000
000DFE200000
0003EFB00000
01005FF20000
2E600CF40000
7F700AF10000
5FD35E600000
07DFC5000000
ENDCHAR
STARTCHAR scircumflex
ENCODING 349
SWIDTH 423 0
DWIDTH 8 0
BBX 10 16 0 0
BITMAP
0000000110
0000002DD0
000004EFF2
00019F97F6
000CC401DB
0000000000
0006CED700
008F73CF50
00EF108F50
00FF503600
00AFE20000
002EFB0000
0105FF3000
7F00DF4000
AF85EC1000
2BEE910000
ENDCHAR
STARTCHAR Scedilla
ENCODING 350
SWIDTH 474 0
DWIDTH 9 0
BBX 11 20 0 -5
BITMAP
000018DFD700
0002DE626F60
000CF4000DD0
005FC0001FE0
00AF9000AFB0
00BF900AFF40
00AFE008D500
004FF7000000
000AFF300000
0001CFB00000
05302FF20000
4F600BF40000
8F900BE10000
3FFABF500000
04CE93000000
002F20000000
005F50000000
06EF30000000
0BF800000000
001000000000
ENDCHAR
STARTCHAR scedilla
ENCODING 351
SWIDTH 423 0
DWIDTH 8 0
BBX 9 15 0 -5
BITMAP
0006CED700
008F73CF50
00EF108F50
00FF503600
00AFE20000
002EFB0000
0006FF3000
5D00DF4000
BF73ED1000
5FFEA20000
03F5000000
00D9000000
03F9000000
5EF5000000
5E90000000
ENDCHAR
STARTCHAR Scaron
ENCODING 352
SWIDTH 474 0
DWIDTH 9 0
BBX 13 19 0 0
BITMAP
000000BD500890
0000004FE6DE50
0000000AFC6100
00000001200000
000018DFD60000
0002DF626F6000
000CF5000DC000
005FC0001FE000
009F90008FC000
00BF9007FF5000
00AFD00BF80000
006FF700100000
000DFE20000000
0003EFB0000000
01005FF2000000
2E600CF4000000
7F700AF1000000
5FD35E60000000
07DFC500000000
ENDCHAR
STARTCHAR scaron
ENCODING 353
SWIDTH 423 0
DWIDTH 8 0
BBX 12 15 0 0
BITMAP
00005C4002C1
00002FC06EC0
00000CFBE700
000006D71000
000000000000
0006CED70000
008F73CF5000
00EF108F5000
00FF50360000
00AFE2000000
002EFB000000
0105FF300000
7F00DF400000
AF85EC100000
2BEE91000000
ENDCHAR
STARTCHAR Tcommaaccent
ENCODING 354
SWIDTH 471 0
DWIDTH 9 0
BBX 12 20 1 -5
BITMAP
07DFDB741057
6FFFEEFFFFE2
AF7009F82200
39001EF20000
00005FD00000
0000BF800000
0001FF400000
0005FE000000
0009F9000000
000EF4000000
004FD0000000
00AF60000000
03FD00000000
1CF400000000
9E5000000000
001000000000
2EF200000000
0DF200000000
2E9000000000
B80000000000
ENDCHAR
STARTCHAR tcommaaccent
ENCODING 355
SWIDTH 358 0
DWIDTH 7 0
BBX 8 18 0 -5
BITMAP
00003600
0001EF20
0008FA00
06FFFFF9
008FA100
00DF4000
02FE0000
06F90000
0AF50000
0DF10000
0EF00710
0DFCDC00
04DE9100
01100000
2EF20000
0DF20000
1E900000
A8000000
ENDCHAR
STARTCHAR Tcaron
ENCODING 356
SWIDTH 471 0
DWIDTH 9 0
BBX 13 19 1 0
BITMAP
000004DB103C20
000000BFA9FC10
0000003FFA4000
00000003100000
07DFDB74105700
6FFFEEFFFFE200
AF7009F8220000
39001EF2000000
00005FD0000000
0000BF80000000
0001FF40000000
0005FE00000000
0009F900000000
000EF400000000
004FD000000000
00AF6000000000
03FD0000000000
1CF40000000000
9E500000000000
ENDCHAR
STARTCHAR tcaron
ENCODING 357
SWIDTH 497 0
DWIDTH 10 0
BBX 11 17 1 0
BITMAP
000000000640
000000005FD0
000000002FC0
000000004F60
00004500CA00
0003FE037000
000BF7000000
08FFFFE60000
00BF71000000
01FF10000000
05FB00000000
09F600000000
0DF200000000
1FE000000000
2FC018000000
1FFBEA000000
06EE80000000
ENDCHAR
STARTCHAR Tbar
ENCODING 358
SWIDTH 471 0
DWIDTH 9 0
BBX 12 15 1 0
BITMAP
07DFDB741057
6FFFEEFFFFE2
AF8009F82200
4B001EF30000
00005FD00000
0000AF900000
0000EF500000
6EFFFFF80000
122AFA200000
000EF4000000
004FD0000000
00AF70000000
02FD10000000
1CF400000000
9E5000000000
ENDCHAR
STARTCHAR tbar
ENCODING 359
SWIDTH 358 0
DWIDTH 7 0
BBX 8 13 0 0
BITMAP
00003600
0001EF20
0008FA00
06FFFFF9
008FA100
00DF4000
5EFFFFE3
19F82210
0BF40000
0DF10000
0EF00810
0CFCDC00
04DE9100
ENDCHAR
STARTCHAR Utilde
ENCODING 360
SWIDTH 624 0
DWIDTH 12 0
BBX 14 19 0 0
BITMAP
0000002AED5077
000000DEDFFE91
00000010012000
00000000000000
0002DE600001E9
0000CFA00009FA
0000BF70002FF3
0002FF20009FC0
0008FC0002FF60
001EF50009FF10
006FD0002FFB00
00DF70009FF600
04FE1003FFF100
0BF9000BEFB000
1FF3005E9F7000
6FD001E4CF4000
8FA00B60FF2000
8FC3B600EF5510
1CFC40006EE800
ENDCHAR
STARTCHAR utilde
ENCODING 361
SWIDTH 553 0
DWIDTH 11 0
BBX 13 15 0 0
BITMAP
000002BE700A10
00001EEFF44B00
00006A05EFB100
00000000110000
00000000000000
008EB0001DB000
005FF1009FA000
006FD002FF3000
00CF800AFC0000
03FF203FF50000
0AFB00CFE00000
2FF508CF900000
6FD05C7F500000
7FB5B1AF740000
2DE8104EE70000
ENDCHAR
STARTCHAR Umacron
ENCODING 362
SWIDTH 624 0
DWIDTH 12 0
BBX 14 18 0 0
BITMAP
0000009EFFFFC0
00000022222200
00000000000000
0002DE600001E9
0000CFA00009FA
0000BF70002FF3
0002FF20009FC0
0008FC0002FF60
001EF50009FF10
006FD0002FFB00
00DF70009FF600
04FE1003FFF100
0BF9000BEFB000
1FF3005E9F7000
6FD001E4CF4000
8FA00B60FF2000
8FC3B600EF5510
1CFC40006EE800
ENDCHAR
STARTCHAR umacron
ENCODING 363
SWIDTH 553 0
DWIDTH 11 0
BBX 12 13 0 0
BITMAP
00003DFFFFE5
000012222210
000000000000
008EB0001DB0
005FF1009FA0
006FD002FF30
00CF800AFC00
03FF203FF500
0AFB00CFE000
2FF508CF9000
6FD05C7F5000
7FB5B1AF7400
2DE8104EE700
ENDCHAR
STARTCHAR Ubreve
ENCODING 364
SWIDTH 624 0
DWIDTH 12 0
BBX 14 20 0 0
BITMAP
00000002500041
0000000CD001D2
0000000CF42B80
00000004EFE700
00000000020000
0002DE600001E9
0000CFA00009FA
0000BF70002FF3
0002FF20009FC0
0008FC0002FF60
001EF50009FF10
006FD0002FFB00
00DF70009FF600
04FE1003FFF100
0BF9000BEFB000
1FF3005E9F7000
6FD001E4CF4000
8FA00B60FF2000
8FC3B600EF5510
1CFC40006EE800
ENDCHAR
STARTCHAR ubreve
ENCODING 365
SWIDTH 553 0
DWIDTH 11 0
BBX 12 15 0 0
BITMAP
000002D40039
000005FA05D4
000001BFFC40
000000011000
000000000000
008EB0001DB0
005FF1009FA0
006FD002FF30
00CF800AFC00
03FF203FF500
0AFB00CFE000
2FF508CF9000
6FD05C7F5000
7FB5B1AF7400
2DE8104EE700
ENDCHAR
STARTCHAR Uring
ENCODING 366
SWIDTH 624 0
DWIDTH 12 0
BBX 14 19 0 0
BITMAP
000000004CEB10
00000004F96F80
0000000AE02F80
0000000BE19F30
0002DE64EFE7E9
0000CFA00109FA
0000BF70002FF3
0002FF20009FC0
0008FC0002FF60
001EF50009FF10
006FD0002FFB00
00DF70009FF600
04FE1003FFF100
0BF9000BEFB000
1FF3005EAF7000
6FD001E5CF4000
8FA00B70FF2000
8FC3B700EF5510
1CFC40006EE800
ENDCHAR
STARTCHAR uring
ENCODING 367
SWIDTH 553 0
DWIDTH 11 0
BBX 11 15 0 0
BITMAP
0000003BEE70
000001EB3CF0
000005F62DC0
000001CFFC20
000000021000
008EB0001DB0
005FF1009FA0
006FD002FF30
00CF800AFC00
03FF203FF500
0AFB00CFE000
2FF508CF9000
6FD05C7F5000
7FB5B1AF7400
2DE8104EE700
ENDCHAR
STARTCHAR Uhungarumlaut
ENCODING 368
SWIDTH 624 0
DWIDTH 12 0
BBX 14 20 0 0
BITMAP
00000000110020
000000009E01F7
00000001EC07F5
0000001BD24F80
00000026105300
0002DE600001E9
0000CFA00009FA
0000BF70002FF3
0002FF20009FC0
0008FC0002FF60
001EF50009FF10
006FD0002FFB00
00DF70009FF600
04FE1003FFF100
0BF9000BEFB000
1FF3005E9F7000
6FD001E4CF4000
8FA00B60FF2000
8FC3B600EF5510
1CFC40006EE800
ENDCHAR
STARTCHAR uhungarumlaut
ENCODING 369
SWIDTH 553 0
DWIDTH 11 0
BBX 12 16 0 0
BITMAP
0000000A3058
0000005F60CE
000000DE15F8
000009E42EB0
00006C30C800
000000000000
008EB0001DB0
005FF1009FA0
006FD002FF30
00CF800AFC00
03FF203FF500
0AFB00CFE000
2FF508CF9000
6FD05C7F5000
7FB5B1AF7400
2DE8104EE700
ENDCHAR
STARTCHAR Uogonek
ENCODING 370
SWIDTH 684 0
DWIDTH 14 0
BBX 14 20 1 -5
BITMAP
0007ED200006E4
0003FF50001EF4
0002FF20007FC0
0008FC0001EF60
000EF60007FF10
006FE1001EFA00
00CF80007FF500
04FF1001EFE100
0AF90008FFA000
2FF3002FEF6000
7FC000BAEF1000
CF7006C4FD0000
FF303D25FB0000
EF75C205FD3400
5EE91001BFF500
00000002CD2000
0000001DE10000
0000006F920000
0000005FFA0000
00000001100000
ENDCHAR
STARTCHAR uogonek
ENCODING 371
SWIDTH 553 0
DWIDTH 11 0
BBX 11 15 0 -5
BITMAP
008EB0001DB0
005FF1009FA0
006FD002FF30
00CF800AFC00
03FF203FF500
0AFB00CFE000
2FF508CF9000
6FD05C7F5000
7FB5B1AF7400
2DE8105EFA00
0000005E8000
000005F80000
00000DF32000
00000BFE5000
000000200000
ENDCHAR
STARTCHAR Wcircumflex
ENCODING 372
SWIDTH 941 0
DWIDTH 19 0
BBX 19 20 1 0
BITMAP
00000000000043000000
000000000007FE000000
0000000003BECF700000
000000003EA22CD10000
00000000000000000000
06BED50000000000AE50
4FFEEE1000000001FFB0
0750CF4000000000AFE0
0006FE10004C90008FE0
001EF80008FF60007FC0
007FE1009FFA00009FA0
00EF8008FFE10000CF50
05FE106FFF900001FE10
0BF803FCCF400007F900
1FF21DD3FF00001EE200
5FC09E24FC00008F6000
8F74F506FA0004FA0000
9F6D8005FA002EB00000
6FDC0002FD36E9000000
0BE200005DEB40000000
ENDCHAR
STARTCHAR wcircumflex
ENCODING 373
SWIDTH 750 0
DWIDTH 15 0
BBX 15 16 0 0
BITMAP
0000000000200000
0000000005F80000
000000008FFC0000
0000003CE5CF1000
000003EA205E6000
0000000000000000
00BEA0001200CE40
008FE001EF10AFA0
004FB009FB006FB0
009F602FF3005F80
00EE10CFC0008F30
05F907FF6000DC00
0BF34EBF3005F300
1FD4E4AF403E7000
4FEE507FC9E80000
1DC3001BFC500000
ENDCHAR
STARTCHAR Ycircumflex
ENCODING 374
SWIDTH 580 0
DWIDTH 12 0
BBX 14 25 0 -5
BITMAP
00000000016000
000000002CF600
00000017EBFD10
000000AD607E60
00000000000000
0003DE600002E8
0001CF90000AF8
0000CF60002FF1
0003FF2000AF90
0009FB0002FF40
001FF5000AFD00
007FD0003FF800
00EF6000AFF200
05FE1003FFC000
0BF8000CFF6000
2FF2006ECF1000
7FC002E5F90000
9F901C59F30000
8FB3B52FA00000
2CEB30BF200000
000006F8000000
00003EC0000000
0003ED20000000
006ED200000000
0BD81000000000
ENDCHAR
STARTCHAR ycircumflex
ENCODING 375
SWIDTH 549 0
DWIDTH 11 0
BBX 11 22 0 -6
BITMAP
000000001100
00000003DC00
0000005EFF10
00002AF88F50
0000DC402DA0
000000000000
007EC1001CC0
004FF2007FC0
004FE001EF70
00AF9008FF20
02FF401EFC00
09FD009FF700
1EF605DEF200
5FE13D5FB000
6FC4D38F6000
1CEA20EE1000
000005F80000
00000DE10000
00008F600000
0007FA000000
03AFB1000000
06B700000000
ENDCHAR
STARTCHAR Ydieresis
ENCODING 376
SWIDTH 580 0
DWIDTH 12 0
BBX 14 25 0 -5
BITMAP
00000037300660
000000EFD07FF5
000000DF906FF2
00000025000520
00000000000000
0003DE600002E8
0001CF90000AF8
0000CF60002FF1
0003FF2000AF90
0009FB0002FF40
001FF5000AFD00
007FD0003FF800
00EF6000AFF200
05FE1003FFC000
0BF8000CFF6000
2FF2006ECF1000
7FC002E5F90000
9F901C59F30000
8FB3B52FA00000
2CEB30BF200000
000006F8000000
00003EC0000000
0003ED20000000
006ED200000000
0BD81000000000
ENDCHAR
STARTCHAR Zacute
ENCODING 377
SWIDTH 501 0
DWIDTH 10 0
BBX 13 20 -1 0
BITMAP
00000000005600
0000000001EF10
0000000009FA00
000000007D7000
00000000000000
0006A31248CE40
0005FFFFFFDFD0
0001AEEB73DF80
000000001DFB00
00000001CFC100
0000001CFC1000
000000BFC10000
00000AFC100000
00009FC1000000
0007FC10000000
005FC100000000
02ED1000000000
0CF458BDD60000
3FEEFFFFFF2000
1DE952114C4000
ENDCHAR
STARTCHAR zacute
ENCODING 378
SWIDTH 430 0
DWIDTH 9 0
BBX 10 16 0 0
BITMAP
00000001A3
00000007FA
0000001DF5
000000AF70
000007C400
0000000000
009C866BC0
005EEDBFF2
000003DF70
00005EF700
0006FF5000
008FE30000
07FD200000
4FE2230000
CFDEFFD100
8E9658D400
ENDCHAR
STARTCHAR Zdotaccent
ENCODING 379
SWIDTH 501 0
DWIDTH 10 0
BBX 13 19 -1 0
BITMAP
00000007EC0000
0000000CFF1000
00000005D60000
00000000000000
0006A31248CE40
0005FFFFFFDFD0
0001AEEB73DF80
000000001DFB00
00000001CFC100
0000001CFC1000
000000BFC10000
00000AFC100000
00009FC1000000
0007FC10000000
005FC100000000
02ED1000000000
0CF458BDD60000
3FEEFFFFFF2000
1DE952114C4000
ENDCHAR
STARTCHAR zdotaccent
ENCODING 380
SWIDTH 430 0
DWIDTH 9 0
BBX 10 15 0 0
BITMAP
00000AF800
00001FFC00
000008C400
0000000000
0000000000
009C866BC0
005EEDBFF2
000003DF70
00005EF700
0006FF5000
008FE30000
07FD200000
4FE2230000
CFDEFFD100
8E9658D400
ENDCHAR
STARTCHAR Zcaron
ENCODING 381
SWIDTH 501 0
DWIDTH 10 0
BBX 13 19 -1 0
BITMAP
0000008D8005C0
0000002EF7BF80
00000007FD8200
00000000300000
0006A31248CE40
0005FFFFFFDFD0
0001AEEB73DF80
000000001DFB00
00000001CFC100
0000001CFC1000
000000BFC10000
00000AFC100000
00009FC1000000
0007FC10000000
005FC100000000
02ED1000000000
0CF458BDD60000
3FEEFFFFFF2000
1DE952114C4000
ENDCHAR
STARTCHAR zcaron
ENCODING 382
SWIDTH 430 0
DWIDTH 9 0
BBX 11 15 0 0
BITMAP
0000B9000880
0000AF42BF50
00005FCEB300
00001DA40000
000000000000
009C866BC000
005EEDBFF200
000003DF7000
00005EF70000
0006FF500000
008FE3000000
07FD20000000
4FE223000000
CFDEFFD10000
8E9658D40000
ENDCHAR
STARTCHAR florin
ENCODING 402
SWIDTH 466 0
DWIDTH 9 0
BBX 16 22 -4 -5
BITMAP
000000000003CE80
00000000003EC3C5
0000000000CE10B9
0000000006F703FA
000000000DF11DF7
000000004FB06FD1
000000009F700520
00000000EF200000
00000018FFFE5000
000003EFFFFFA000
000003BFF5100000
0000002FF1000000
0000006FB0000000
000000AF70000000
000000EF30000000
000002FE00000000
000007F900000000
00000CF400000000
02003FD000000000
6F20AF6000000000
AF87FB0000000000
2AEE910000000000
ENDCHAR
STARTCHAR AEacute
ENCODING 508
SWIDTH 878 0
DWIDTH 18 0
BBX 22 20 -2 0
BITMAP
0000000000000000560000
0000000000000001EF2000
0000000000000009FA0000
000000000000007D700000
0000000000000000000000
000000000006CFC8DFEB30
0000000001BFEEFFB53AD0
000000000BF93DF80009F1
000000009F80BFB0007FD0
00000005FA02FF300AFF50
0000002ED104FD001DE600
000000BF3002FD00001000
000007FDACDDFFCC900000
0002BFFFFFFFFFFD700000
0002DF400009FF60000000
0005FB00005FF400000000
001DF20000AFA000180000
008F800000BF8001BF1000
07FD0000006FE67EF70000
4EC200000006DFEA400000
ENDCHAR
STARTCHAR aeacute
ENCODING 509
SWIDTH 770 0
DWIDTH 15 0
BBX 16 16 0 0
BITMAP
0000000000950000
0000000004FD0000
000000000BF80000
000000008FA00000
00000004D6000000
0000000000000000
00005CEB5EBCFD50
0009FA3AFFE56FE0
009F9006FF304FF1
04FD000BF901CFB0
0BF6002FF35DFC10
1FF2008FFEDA5000
4FE002EFF0000000
4FD00B8FF1002A00
1EF49A0BF936EB00
05DE8001AEFD8100
ENDCHAR
STARTCHAR Scommaaccent
ENCODING 536
SWIDTH 474 0
DWIDTH 9 0
BBX 11 20 0 -5
BITMAP
000018DFD600
0002DF626F60
000CF5000DC0
005FC0001FE0
009F90008FC0
00BF9007FF50
00AFD00BF800
006FF7001000
000DFE200000
0003EFB00000
01005FF20000
2E600CF40000
7F700AF10000
5FD35E600000
07DFC5000000
000200000000
01EF30000000
00CF30000000
01DB00000000
099100000000
ENDCHAR
STARTCHAR scommaaccent
ENCODING 537
SWIDTH 423 0
DWIDTH 8 0
BBX 9 15 0 -5
BITMAP
0006CED700
008F73CF50
00EF108F50
00FF503600
00AFE20000
002EFB0000
0105FF3000
7F00DF4000
AF85EC1000
2BEE910000
0020000000
0BF8000000
07F8000000
0AE2000000
5C20000000
ENDCHAR
STARTCHAR dotlessj
ENCODING 567
SWIDTH 277 0
DWIDTH 6 0
BBX 9 15 -4 -5
BITMAP
000000BEA0
000000AFC0
0000009FA0
000000BF70
000000EF30
000004FE00
000009F900
00000DF300
00004FD000
0000BF6000
0003FD0000
000BF40000
006F900000
05FA000000
5E70000000
ENDCHAR
STARTCHAR circumflex
ENCODING 710
SWIDTH 354 0
DWIDTH 7 0
BBX 7 5 0 11
BITMAP
00000200
0001BE10
002DFF50
17EB5F90
9D600BD0
ENDCHAR
STARTCHAR caron
ENCODING 711
SWIDTH 381 0
DWIDTH 8 0
BBX 7 4 1 11
BITMAP
B9000970
AF43CE40
5FCFA200
1D920000
ENDCHAR
STARTCHAR breve
ENCODING 728
SWIDTH 344 0
DWIDTH 7 0
BBX 7 4 0 11
BITMAP
0B8001C0
1FD13C80
08FFD600
00120000
ENDCHAR
STARTCHAR dotaccent
ENCODING 729
SWIDTH 217 0
DWIDTH 4 0
BBX 4 3 1 12
BITMAP
4ED2
9FF4
3C90
ENDCHAR
STARTCHAR ring
ENCODING 730
SWIDTH 402 0
DWIDTH 8 0
BBX 6 6 2 9
BITMAP
01AEE5
0CD3DE
4F60BE
5F73F9
1BFFA1
002100
ENDCHAR
STARTCHAR ogonek
ENCODING 731
SWIDTH 311 0
DWIDTH 6 0
BBX 6 7 0 -5
BITMAP
000186
003E80
03EA00
0CF200
1FF120
0DFD30
002000
ENDCHAR
STARTCHAR tilde
ENCODING 732
SWIDTH 397 0
DWIDTH 8 0
BBX 8 4 1 11
BITMAP
05DD301A
5FEFD197
B509FF70
10001000
ENDCHAR
STARTCHAR hungarumlaut
ENCODING 733
SWIDTH 392 0
DWIDTH 8 0
BBX 8 5 0 11
BITMAP
00093049
004F70BF
00CE25F9
08F52EB1
5C30C900
ENDCHAR
STARTCHAR pi
ENCODING 960
SWIDTH 640 0
DWIDTH 13 0
BBX 14 10 -1 0
BITMAP
0019DFFFFFFFFD
00452AD57BFC61
00001E800CF400
00006F303FD000
0000DC007F9000
0006F700BF5000
002EF100EF1000
01CF8001FF0000
2DFE1000FFB900
1DD300007EC200
ENDCHAR
STARTCHAR uni1E02
ENCODING 7682
SWIDTH 551 0
DWIDTH 11 0
BBX 11 19 1 0
BITMAP
0000007EB000
000000DFF000
0000006D6000
000000000000
0059CEFEA400
2DFE8424CF50
2CA540003FD0
001EF5002FF0
00AFE1005FD0
03FF7000CF80
09FE101BFC10
1FF726DFC100
6FFFFFF90000
AFB635DF4000
DF20006FA000
FD00008F9000
FB0003EF3000
CE559FE50000
3CFEB7100000
ENDCHAR
STARTCHAR uni1E03
ENCODING 7683
SWIDTH 525 0
DWIDTH 11 0
BBX 11 17 0 0
BITMAP
000044000000
0000EF100000
0002FF007EB0
0005FB00DFF0
0009F7006D60
000DF2000000
003FC0000000
007F76DEA000
00CF9C3BF700
02FED108FB00
07FF3009FB00
0CF9000BF900
0FF2001FF500
2FB0008FD000
2F9004FE3000
0DD58FE40000
02BED8100000
ENDCHAR
STARTCHAR uni1E0A
ENCODING 7690
SWIDTH 630 0
DWIDTH 13 0
BBX 12 19 1 0
BITMAP
0000003DE300
0000007FF600
0000002CA100
000000000000
038CEFED9300
0DFD7324BF80
037131000BF5
000AFC0005FB
003FF50003FE
00BFB00004FE
02FF400007FC
08FC00000CF8
0EF600004FF2
4FF10000DF80
9FA0000AFD10
CF60009FE200
FF201AFD2000
DF36EF910000
3CED93000000
ENDCHAR
STARTCHAR uni1E0B
ENCODING 7691
SWIDTH 557 0
DWIDTH 11 0
BBX 13 17 0 0
BITMAP
00000000000550
00000000003FD0
0001CE6000AF70
0004FF9001FF20
0000AC2006FB00
000000000BF600
000000001FF100
00003BEC8FB000
0006FC37FF7000
005FC002FF2000
02EF2006FD0000
08F9000BF80000
0EF4003FF40000
1FF100BFF00000
2FF006FFC00000
0EF56E6FC34000
04DEB30AFC3000
ENDCHAR
STARTCHAR uni1E1E
ENCODING 7710
SWIDTH 518 0
DWIDTH 10 0
BBX 13 19 0 0
BITMAP
00000001BE6000
00000004FF9000
00000000AC2000
00000000000000
019EFEDCBAAC50
09FFEDEFFFFA10
0DF501DD000000
057006F8000000
00000CF4000000
00003FF1000000
00008FB0000000
0002DFEEE60000
006FFFEDDA0000
002BFC00000000
000DF600000000
006FD000000000
01DF5000000000
0AF90000000000
4E800000000000
ENDCHAR
STARTCHAR uni1E1F
ENCODING 7711
SWIDTH 393 0
DWIDTH 8 0
BBX 12 22 -1 -3
BITMAP
0000001BE700
0000003FFA00
0000000AC300
00000005CDA1
0000006F94F9
000001EE14FB
000006F81DF7
00000CF40880
00001FE00000
00006F900000
0000BFDCA200
007EFFFFF700
008AFC100000
0009F7000000
000EF3000000
003FD0000000
008F90000000
00DF50000000
03FE00000000
09F900000000
1EF300000000
4E8000000000
ENDCHAR
STARTCHAR uni1E40
ENCODING 7744
SWIDTH 931 0
DWIDTH 19 0
BBX 21 19 -2 0
BITMAP
0000000000000007EB0000
000000000000000DFF1000
0000000000000005D60000
0000000000000000000000
00000000006DE40002AE80
000000000ADFF4002EEF80
00000000AD5FD001DBCF30
00000007F3AF8009E4FD00
0000002F91EF303F68F900
000000BE15FD00CC0DF400
000005F709F905F44FE000
00000DD00DF50CA09FA000
00006F501FF25F30DF5000
0001EC004FE0CA02FF1000
0009F4005FB4F205FD0000
003FB0006FAC9008FA0000
01DF20006FDE1009F80000
2BF600005FF60006FB2400
DE7000001D900001BFD500
ENDCHAR
STARTCHAR uni1E41
ENCODING 7745
SWIDTH 814 0
DWIDTH 16 0
BBX 16 15 0 0
BITMAP
000000002DE50000
000000006FF70000
000000001BB10000
0000000000000000
0000000000000000
009EA019EA007EC1
006FE0BFEF18EFF7
006FAAD29E6D2BF6
00AFAD10ECE22FE1
01FFD206FF509F80
07FF400DF902FF10
0DF7005FD107FA00
5FD000CF600AF600
CF6003FE000AFDD1
AD1003E60003DE50
ENDCHAR
STARTCHAR uni1E56
ENCODING 7766
SWIDTH 553 0
DWIDTH 11 0
BBX 14 19 -1 0
BITMAP
0000000007EB00
000000000DFF00
0000000006D600
00000000000000
00016ADEFEB500
000CFE85338FA0
000364E6000CF3
00000CF7000CF5
00003FF1002FF3
00009FB001CFC0
0000EF603CFD20
0004FF7AFFA100
0009FFEC830000
001EF400000000
006FD000000000
00DF5000000000
06FC0000000000
2EE20000000000
8D300000000000
ENDCHAR
STARTCHAR uni1E57
ENCODING 7767
SWIDTH 550 0
DWIDTH 11 0
BBX 13 20 -2 -5
BITMAP
00000001CE6000
00000004FF8000
00000000BB2000
00000000000000
00000000000000
0002DE42AED400
0000CF9E84FE00
0000CFF700EF30
0000FFB000FF40
0004FF2003FF10
0008FA0008FB00
000CF5002EF300
002FF301CF8000
006FFA5CF80000
00BF7CEB400000
01FF1000000000
05FA0000000000
0BF50000000000
2FE00000000000
3E600000000000
ENDCHAR
STARTCHAR uni1E60
ENCODING 7776
SWIDTH 474 0
DWIDTH 9 0
BBX 11 19 0 0
BITMAP
0000000AF900
0000001FFC00
00000008C400
000000000000
000018DFD600
0002DF626F60
000CF5000DC0
005FC0001FE0
009F90008FC0
00BF9007FF50
00AFD00BF800
006FF7001000
000DFE200000
0003EFB00000
01005FF20000
2E600CF40000
7F700AF10000
5FD35E600000
07DFC5000000
ENDCHAR
STARTCHAR uni1E61
ENCODING 7777
SWIDTH 423 0
DWIDTH 8 0
BBX 9 15 0 0
BITMAP
000003ED30
000008FF50
000002C900
0000000000
0000000000
0006CED700
008F73CF50
00EF108F50
00FF503600
00AFE20000
002EFB0000
0105FF3000
7F00DF4000
AF85EC1000
2BEE910000
ENDCHAR
STARTCHAR uni1E6A
ENCODING 7786
SWIDTH 430 0
DWIDTH 9 0
BBX 13 19 0 0
BITMAP
00000009F90000
0000000FFD0000
00000007D40000
00000000000000
02BEEC96301B10
0DFFEEFFFFF900
2FD202FE221000
084007FA000000
00000DF5000000
00003FF1000000
00007FC0000000
0000CF70000000
0001FF20000000
0006FC00000000
000BF600000000
002FE100000000
009F6000000000
05FB0000000000
1EB10000000000
ENDCHAR
STARTCHAR uni1E6B
ENCODING 7787
SWIDTH 358 0
DWIDTH 7 0
BBX 8 15 1 0
BITMAP
00007EC0
0000CFF1
0000AE60
0007F900
002EF300
1CFFFFD3
01FF3100
05FB0000
0AF60000
0EF20000
3FC00000
5F900000
7F802600
5FEBF500
0AFC5000
ENDCHAR
STARTCHAR Wgrave
ENCODING 7808
SWIDTH 941 0
DWIDTH 19 0
BBX 19 20 1 0
BITMAP
00000000005300000000
0000000004FB00000000
0000000002FF40000000
00000000003BE1000000
00000000000000000000
06BED50000000000AE50
4FFEEE2000000001FFB0
0640CF4000000000AFE0
0006FE00005DA0008FE0
001EF70009FF50007FC0
007FE100AFF800009FA0
00EF7009FFE10000CF50
05FE008FEF800002FE10
0BF704FADF300008F900
1FF12EC3FE00002EE200
5FA0BE24FB0000AF6000
8F76F406FA0006FA0000
9F7E8005FA005FB00000
6FEC0002FE7AF9000000
0BE200005DEB40000000
ENDCHAR
STARTCHAR wgrave
ENCODING 7809
SWIDTH 750 0
DWIDTH 15 0
BBX 15 15 0 0
BITMAP
00000003DA000000
00000007FA000000
00000003FB000000
000000006E100000
0000000002000000
00BEA0001200CE40
008FE001EF10AFA0
004FB009FB006FB0
009F602FF3005F80
00EE10CFC0008F30
05F907FF6000DC00
0BF34EBF3005F300
1FD4E4AF403E7000
4FEE507FC9E80000
1DC3001BFC500000
ENDCHAR
STARTCHAR Wacute
ENCODING 7810
SWIDTH 941 0
DWIDTH 19 0
BBX 19 20 1 0
BITMAP
00000000000007400000
0000000000003FE00000
000000000001CF700000
000000000009C5000000
00000000000000000000
06BED50000000000AE50
4FFEEE1000000001FFB0
0750CF4000000000AFE0
0006FE10004C90008FE0
001EF80008FF60007FC0
007FE1009FFA00009FA0
00EF8008FFE10000CF50
05FE106FFF900001FE10
0BF803FCCF400007F900
1FF21DD3FF00001EE200
5FC09E24FC00008F6000
8F74F506FA0004FA0000
9F6D8005FA002EB00000
6FDC0002FD36E9000000
0BE200005DEB40000000
ENDCHAR
STARTCHAR wacute
ENCODING 7811
SWIDTH 750 0
DWIDTH 15 0
BBX 15 16 0 0
BITMAP
0000000002A20000
0000000008F90000
000000001EF40000
00000000BF600000
00000008B3000000
0000000000000000
00BEA0001200CE40
008FE001EF10AFA0
004FB009FB006FB0
009F602FF3005F80
00EE10CFC0008F30
05F907FF6000DC00
0BF34EBF3005F300
1FD4E4AF403E7000
4FEE507FC9E80000
1DC3001BFC500000
ENDCHAR
STARTCHAR Wdieresis
ENCODING 7812
SWIDTH 941 0
DWIDTH 19 0
BBX 19 19 1 0
BITMAP
000000003EE30AF90000
000000008FF50FFC0000
000000002C9008C40000
00000000000000000000
06BED50000000000AE50
4FFEEE2000000001FFB0
0640CF4000000000AFE0
0006FE00005DA0008FE0
001EF70009FF50007FC0
007FE100AFF800009FA0
00EF7009FFE10000CF50
05FE008FEF800002FE10
0BF704FADF300008F900
1FF12EC3FE00002EE200
5FA0BE24FB0000AF6000
8F76F406FA0006FA0000
9F7E8005FA005FB00000
6FEC0002FE7AF9000000
0BE200005DEB40000000
ENDCHAR
STARTCHAR wdieresis
ENCODING 7813
SWIDTH 750 0
DWIDTH 15 0
BBX 15 15 0 0
BITMAP
000000BE705ED200
000002FFB0AFF300
0000009C303D8000
0000000000000000
0000000000000000
00BEA0001200CE40
008FE001EF10AFA0
004FB009FB006FB0
009F602FF3005F80
00EE10CFC0008F30
05F907FF6000DC00
0BF34EBF3005F300
1FD4E4AF403E7000
4FEE507FC9E80000
1DC3001BFC500000
ENDCHAR
STARTCHAR Ygrave
ENCODING 7922
SWIDTH 580 0
DWIDTH 12 0
BBX 14 25 0 -5
BITMAP
00000002600000
0000000CF40000
00000009FB0000
000000007D8000
00000000000000
0003DE600002E8
0001CF90000AF8
0000CF60002FF1
0003FF2000AF90
0009FB0002FF40
001FF5000AFD00
007FD0003FF800
00EF6000AFF200
05FE1003FFC000
0BF8000CFF6000
2FF2006ECF1000
7FC002E5F90000
9F901C59F30000
8FB3B52FA00000
2CEB30BF200000
000006F8000000
00003EC0000000
0003ED20000000
006ED200000000
0BD81000000000
ENDCHAR
STARTCHAR ygrave
ENCODING 7923
SWIDTH 549 0
DWIDTH 11 0
BBX 11 21 0 -6
BITMAP
000001CE0000
000003FE0000
000000DE0000
0000003E5000
000000011000
007EC1001CC0
004FF2007FC0
004FE001EF70
00AF9008FF20
02FF401EFC00
09FD009FF700
1EF605DEF200
5FE13D5FB000
6FC4D38F6000
1CEA20EE1000
000005F80000
00000DE10000
00008F600000
0007FA000000
03AFB1000000
06B700000000
ENDCHAR
STARTCHAR endash
ENCODING 8211
SWIDTH 751 0
DWIDTH 15 0
BBX 13 2 1 5
BITMAP
1DFFFFFFFFFF70
02222222222200
ENDCHAR
STARTCHAR emdash
ENCODING 8212
SWIDTH 1066 0
DWIDTH 21 0
BBX 19 2 1 5
BITMAP
1CFFFFFFFFFFFFFFFFC0
02222222222222222200
ENDCHAR
STARTCHAR quoteleft
ENCODING 8216
SWIDTH 268 0
DWIDTH 5 0
BBX 5 5 2 11
BITMAP
007D10
08F300
1FD000
3FF200
0CD200
ENDCHAR
STARTCHAR quoteright
ENCODING 8217
SWIDTH 268 0
DWIDTH 5 0
BBX 4 5 3 11
BITMAP
1CD1
1EF5
0BF2
2E90
C800
ENDCHAR
STARTCHAR quotesinglbase
ENCODING 8218
SWIDTH 268 0
DWIDTH 5 0
BBX 4 5 0 -2
BITMAP
0BE3
0CF7
08F5
1DC0
AA10
ENDCHAR
STARTCHAR quotedblleft
ENCODING 8220
SWIDTH 485 0
DWIDTH 10 0
BBX 9 5 2 11
BITMAP
003C504D40
04F705F600
0DF00EE000
2FF33FF200
0DD21DC100
ENDCHAR
STARTCHAR quotedblright
ENCODING 8221
SWIDTH 480 0
DWIDTH 10 0
BBX 8 5 3 12
BITMAP
08E609E5
0AFA0CF8
07F609F5
1DB02EA0
C901C800
ENDCHAR
STARTCHAR quotedblbase
ENCODING 8222
SWIDTH 463 0
DWIDTH 9 0
BBX 8 5 0 -2
BITMAP
0BE31CD2
0CF71EF6
08F50AF4
1DC01EB0
AA10B910
ENDCHAR
STARTCHAR dagger
ENCODING 8224
SWIDTH 488 0
DWIDTH 10 0
BBX 10 15 1 0
BITMAP
00002EB000
00006FF200
00009FE000
0666DFD8A1
08EFFFFD70
0006FF1000
0009FB0000
000DF50000
003FE00000
007F800000
00CF200000
02FA000000
07F3000000
0D90000000
2C10000000
ENDCHAR
STARTCHAR daggerdbl
ENCODING 8225
SWIDTH 488 0
DWIDTH 10 0
BBX 10 15 1 0
BITMAP
00002EB000
00006FF200
00009FE000
0666DFD8A1
07DFFFFE80
0005FF1000
0009FB0000
000DF60000
356FF89300
5CFFFEA100
00CF200000
02FA000000
07F3000000
0D90000000
3C10000000
ENDCHAR
STARTCHAR bullet
ENCODING 8226
SWIDTH 437 0
DWIDTH 9 0
BBX 5 5 2 4
BITMAP
09EE50
8FFFE0
BFFFE0
7FFF80
06A600
ENDCHAR
STARTCHAR ellipsis
ENCODING 8230
SWIDTH 810 0
DWIDTH 16 0
BBX 15 3 0 0
BITMAP
3EE500BFA005ED30
7FF901FFF00AFF60
2DD2009E7004EC10
ENDCHAR
STARTCHAR perthousand
ENCODING 8240
SWIDTH 1184 0
DWIDTH 24 0
BBX 22 15 1 0
BITMAP
004CEB10001BA000000000
05FB4FA000CF3000000000
1EF21FD007F70000000000
6FA03FC02FC00000000000
7F709F80CF200000000000
4F83FD17F7000000000000
0AFFC22FC0000000000000
001100CF20000000000000
000007F704BEB20029ED50
00002FC05FB4FA01DE4CE1
0000CE21EF20FD0AF60AF3
0007F705FA03FC0FE10DF2
002FB006F709F71FC05FC0
00CE2003F95FC10DD3DE30
05D300007EE91004DEB300
ENDCHAR
STARTCHAR guilsinglleft
ENCODING 8249
SWIDTH 413 0
DWIDTH 8 0
BBX 7 8 1 2
BITMAP
00002B40
0007EA00
04DF7000
5FE40000
6FC10000
08FB0000
009FA000
0009E200
ENDCHAR
STARTCHAR guilsinglright
ENCODING 8250
SWIDTH 416 0
DWIDTH 8 0
BBX 6 8 1 2
BITMAP
09D300
04FE20
005FD2
0007FD
001AFC
02CF81
4EC300
B60000
ENDCHAR
STARTCHAR fraction
ENCODING 8260
SWIDTH 580 0
DWIDTH 12 0
BBX 12 16 0 0
BITMAP
0000000006E2
000000003FB0
00000000CF20
00000006F800
0000001ED100
0000008F5000
000003FB0000
00000BF20000
00005F800000
0001DD100000
0008F5000000
002FB0000000
00BF20000000
05F800000000
0DD100000000
5D4000000000
ENDCHAR
STARTCHAR Euro
ENCODING 8364
SWIDTH 622 0
DWIDTH 12 0
BBX 13 15 1 0
BITMAP
00000006CEC400
000001BFA38E10
00001CF9007F40
0000AFC001DF30
0005FF200BFE00
000DF9002FF600
005FF200045000
0CFFFFFC100000
02FF5210000000
9FFFFFD3000000
07FE2100000000
05FF0000000000
01FF3000730000
009FC34BF50000
0007DFEB500000
ENDCHAR
STARTCHAR trademark
ENCODING 8482
SWIDTH 1084 0
DWIDTH 22 0
BBX 17 9 3 7
BITMAP
012210000011000200
6FFFFFED18FB01BF70
576EC6635EFA09EF60
005F6000C9F73E9F30
00CE1005E5F5B8BF10
02FA000D85F7E1ED00
05F7006F26FE70FC00
05F701E805FD10FE00
01AB089001B4007D20
ENDCHAR
STARTCHAR Omega
ENCODING 8486
SWIDTH 839 0
DWIDTH 17 0
BBX 15 16 1 0
BITMAP
0000001210000000
00018DFFFD710000
004EF72028FD2000
02EF4000006FE100
0BF90000000BF900
2FF300000005FF10
6FE000000001FF40
8FD000000000FF60
7FE000000001FF60
5FF200000003FF30
1EF600000008FC00
07FC0000001EF500
00CF6000007FA000
301CE10003FA0130
ED86EB001DD59ED0
9FFFFF507FFFFF80
ENDCHAR
STARTCHAR partialdiff
ENCODING 8706
SWIDTH 580 0
DWIDTH 12 0
BBX 12 18 0 -1
BITMAP
000000012000
000002BFFC30
00001EF61CD0
00003FB006F4
0000085005F6
0000014206F6
0002AFFFB9F5
002DFC21CFF4
00DFC0006FF1
07FF20009FB0
0DF90001EF70
3FF30006FE10
5FE0001EF900
6FC0008FE100
4FB004FF4000
1DE46EE50000
03DFFA200000
000100000000
ENDCHAR
STARTCHAR Delta
ENCODING 8710
SWIDTH 663 0
DWIDTH 13 0
BBX 13 12 0 0
BITMAP
0000009D000000
000006FF500000
00001EAFC00000
00008D0CF40000
0002E605FB0000
0009C000DF3000
003F40006FA000
00BB00000EF200
04F3000007F900
0CA0000001EF20
5F311111119F80
9FFFFFFFFFFE50
ENDCHAR
STARTCHAR product
ENCODING 8719
SWIDTH 667 0
DWIDTH 13 0
BBX 11 18 1 -2
BITMAP
002333333310
1BEDDDDDDFD0
7FB000004FE0
7FB000004FE0
7FB000004FE0
7FB000004FE0
7FB000004FE0
7FB000004FE0
7FB000004FE0
7FB000004FE0
7FB000004FE0
7FB000004FE0
7FB000004FE0
7FB000004FE0
7FB000004FE0
7FB000004FE0
7FA000004FD0
492000002940
ENDCHAR
STARTCHAR summation
ENCODING 8721
SWIDTH 677 0
DWIDTH 14 0
BBX 13 18 0 -2
BITMAP
00033333333300
00BFFFFFFFFE40
02FF9111111000
00AFF400000000
002EFD10000000
0006FF90000000
0000AFF5000000
00001DFE100000
000004FF900000
000000CF600000
000007FA000000
00005FC0000000
0003EE20000000
001DF300000000
00CF6000000000
0AF80000000000
3FFFFFFFFFFA00
2CDDDDDDDDC400
ENDCHAR
STARTCHAR minus
ENCODING 8722
SWIDTH 617 0
DWIDTH 12 0
BBX 11 3 1 6
BITMAP
011111111100
8FFFFFFFFF10
355555555300
ENDCHAR
STARTCHAR radical
ENCODING 8730
SWIDTH 709 0
DWIDTH 14 0
BBX 16 20 0 -1
BITMAP
000000000000008A
00000000000002FB
00000000000009F8
0000000000002FF3
0000000000009F90
000000000002FE10
000000000009F700
00000000002FD000
0000000000AF5000
005C800002FB0000
04FFF1000AF30000
3EADF4003F900000
0109F700AE100000
0006FA03F7000000
0002FD0AD0000000
0000EF4F50000000
0000AFDB00000000
00007FF300000000
00003F9000000000
0000010000000000
ENDCHAR
STARTCHAR infinity
ENCODING 8734
SWIDTH 681 0
DWIDTH 14 0
BBX 12 7 1 4
BITMAP
003400004410
1CFFD34DFFE3
9F95BEFF94CB
DA003FF8008D
C903EFF503EB
6FDFFA7FEFF3
05A95004A930
ENDCHAR
STARTCHAR integral
ENCODING 8747
SWIDTH 583 0
DWIDTH 12 0
BBX 16 23 -2 -4
BITMAP
0000000000018C91
00000000000BFBBA
00000000008FA06E
0000000002FE11DE
000000000AF80BF9
000000001FF20491
000000006FB00000
00000000CF600000
00000001FF200000
00000006FC000000
0000000AF8000000
0000000EF3000000
0000004FE0000000
0000009FA0000000
000000DF50000000
000002FF10000000
000007FA00000000
03600CF500000000
3FF34FD000000000
9F80BF6000000000
9C05FD0000000000
5D8FE30000000000
07DB300000000000
ENDCHAR
STARTCHAR approxequal
ENCODING 8776
SWIDTH 671 0
DWIDTH 13 0
BBX 12 10 1 2
BITMAP
000242000001
008FFF700088
08F9CFF805F3
2F400BFFFF70
2700018DB500
004982000050
08FFFE4006D0
6F65DFE67E60
C6002EFFF800
400001773000
ENDCHAR
STARTCHAR notequal
ENCODING 8800
SWIDTH 617 0
DWIDTH 12 0
BBX 11 13 1 1
BITMAP
000000007A00
00000007F500
0000002FA000
011111BF3100
3FFFFFFFFF70
15556FC55500
00009F400000
0234FB333200
6FFFFFFFFF30
149F74444300
01EB00000000
0AE200000000
3D4000000000
ENDCHAR
STARTCHAR lessequal
ENCODING 8804
SWIDTH 704 0
DWIDTH 14 0
BBX 11 14 1 0
BITMAP
000000000400
00000004CE10
000002AFC300
00019FD50000
017EF8100000
5DFA20000000
8FF700000000
03BFD5000000
0004CFB20000
000006DF8100
00000017EE00
000000001300
166666666610
8FFFFFFFFD10
ENDCHAR
STARTCHAR greaterequal
ENCODING 8805
SWIDTH 617 0
DWIDTH 12 0
BBX 11 14 1 0
BITMAP
240000000000
8FB300000000
04DFA2000000
0007EF810000
000019FE7000
0000003CFD20
0000018FE800
00006EF92000
003CFB300000
19FC40000000
AD6000000000
210000000000
266666666600
BFFFFFFFFC00
ENDCHAR
STARTCHAR lozenge
ENCODING 9674
SWIDTH 580 0
DWIDTH 12 0
BBX 11 17 0 -1
BITMAP
000002000000
00002F900000
0000BFF30000
0005F7FC0000
001DB08F6000
008F201DE100
02F80005F900
0BD10000BF30
1FA000003F80
0AF300007F20
02EB0002F800
007F500BD100
000DD16F5000
0004F9EB0000
0000AFF20000
00002E800000
000001000000
ENDCHAR
STARTCHAR commaaccent
ENCODING 63171
SWIDTH 250 0
DWIDTH 5 0
BBX 4 5 0 -6
BITMAP
05EC
03FE
03F7
1D80
0100
ENDCHAR
STARTCHAR ff
ENCODING 64256
SWIDTH 773 0
DWIDTH 15 0
BBX 20 19 -1 -3
BITMAP
00000006DEA10019ED70
0000006FA5F900CF5AF3
000001EE13FB06F909F5
000006F91DF70CF35FF2
00000BF409802FD02A50
00001FE000007F800000
00005FA00000BF400000
0000AFB9ABCCFFDB5000
007CFFFFFFFFFFFFD000
02BBFC32110AF6000000
0009F800000EF2000000
000DF300004FC0000000
003FE000009F80000000
008F900000DF40000000
00DF500003FE00000000
03FE000009F900000000
09F900001EF300000000
1EF300006FC000000000
4E8000009D3000000000
ENDCHAR
STARTCHAR fi
ENCODING 64257
SWIDTH 623 0
DWIDTH 12 0
BBX 14 19 -1 -3
BITMAP
000000005BED81
0000000AFA45F9
0000008F9000FE
000003FD0005FD
00000BF5000DF7
00002FE0000240
00009FECDEFF90
007EFF95329FB0
01CAFD00009F80
0008F80000EF30
000CF40006FC00
001FE0000CF600
006FA0002FF100
00AF60006FB000
01FF10007FA200
06FA00001CEA10
0CF40000000000
5FC00000000000
27200000000000
ENDCHAR
STARTCHAR fl
ENCODING 64258
SWIDTH 637 0
DWIDTH 13 0
BBX 15 19 -1 -3
BITMAP
000000007CEEA300
0000000BFB45FE10
0000009FA000CF30
000003FE1000EF10
00000AF60002FD00
00002FE10007F900
00007F90000CF500
0002CFEFB12FE100
009FFFDDD38FA000
0059FB0000DF5000
000AF70004FE0000
000EF20009F90000
005FC0000EF40000
009F70002FF10000
01EF20002FE34000
06FB000009EC3000
0DF5000000000000
5FC0000000000000
2710000000000000
ENDCHAR
STARTCHAR .notdef
ENCODING -1
SWIDTH 896 0
DWIDTH 18 0
BBX 19 19 1 -1
BITMAP
00000699999999999930
00004FFFFFFFFFFFFF90
0000AFFFFFFFFFFFFF60
0001FFFFFFFFFFFFFF20
0005FFFC8FFFB7BFFC00
000AFFE12FF603BFF800
000EFFB01F606FFFF300
003FFFC00907FFFFE000
008FFFE0007FFFFFA000
00CFFFF404FFFFFF5000
01FFFFF303FFFFFF1000
06FFFF7100DFFFFC0000
0AFFF70A604CBFF70000
0EFF508FD1007FF30000
4FFF9AFFFD7AFFD00000
8FFFFFFFFFFFFF900000
CFFFFFFFFFFFFF300000
AFFFFFFFFFFFFA000000
02333333333320000000
ENDCHAR
ENDFONT
